<svg width="46" height="40" viewBox="0 0 46 40" fill="none" xmlns="http://www.w3.org/2000/svg">
<g filter="url(#filter0_d_1549_265)">
<path d="M10.75 14.5714C10.75 13.8282 10.7504 13.3101 10.7794 12.9051C10.8078 12.5073 10.8609 12.2763 10.9377 12.1002C11.1647 11.58 11.58 11.1647 12.1002 10.9377C12.2763 10.8609 12.5073 10.8078 12.9051 10.7794C13.3101 10.7504 13.8282 10.75 14.5714 10.75C15.3147 10.75 15.8327 10.7504 16.2377 10.7794C16.6356 10.8078 16.8666 10.8609 17.0426 10.9377C17.5629 11.1647 17.9781 11.58 18.2051 12.1002C18.2819 12.2763 18.3351 12.5073 18.3635 12.9051C18.3924 13.3101 18.3929 13.8282 18.3929 14.5714C18.3929 15.3147 18.3924 15.8327 18.3635 16.2377C18.3351 16.6356 18.2819 16.8666 18.2051 17.0426C17.9781 17.5629 17.5629 17.9781 17.0426 18.2051C16.8666 18.2819 16.6356 18.3351 16.2377 18.3635C15.8327 18.3924 15.3147 18.3929 14.5714 18.3929C13.8282 18.3929 13.3101 18.3924 12.9051 18.3635C12.5073 18.3351 12.2763 18.2819 12.1002 18.2051C11.58 17.9781 11.1647 17.5629 10.9377 17.0426C10.8609 16.8666 10.8078 16.6356 10.7794 16.2377C10.7504 15.8327 10.75 15.3147 10.75 14.5714Z" stroke="#9EFFCA" stroke-width="1.5"/>
<path d="M10.75 25.4285C10.75 24.6853 10.7504 24.1673 10.7794 23.7622C10.8078 23.3644 10.8609 23.1334 10.9377 22.9574C11.1647 22.4371 11.58 22.0218 12.1002 21.7949C12.2763 21.718 12.5073 21.6649 12.9051 21.6365C13.3101 21.6076 13.8282 21.6071 14.5714 21.6071C15.3147 21.6071 15.8327 21.6076 16.2377 21.6365C16.6356 21.6649 16.8666 21.718 17.0426 21.7949C17.5629 22.0218 17.9781 22.4371 18.2051 22.9574C18.2819 23.1334 18.3351 23.3644 18.3635 23.7622C18.3924 24.1673 18.3929 24.6853 18.3929 25.4285C18.3929 26.1718 18.3924 26.6898 18.3635 27.0948C18.3351 27.4927 18.2819 27.7237 18.2051 27.8997C17.9781 28.42 17.5629 28.8352 17.0426 29.0622C16.8666 29.1391 16.6356 29.1922 16.2377 29.2206C15.8327 29.2495 15.3147 29.25 14.5714 29.25C13.8282 29.25 13.3101 29.2495 12.9051 29.2206C12.5073 29.1922 12.2763 29.1391 12.1002 29.0622C11.58 28.8352 11.1647 28.42 10.9377 27.8997C10.8609 27.7237 10.8078 27.4927 10.7794 27.0948C10.7504 26.6898 10.75 26.1718 10.75 25.4285Z" stroke="#9EFFCA" stroke-width="1.5"/>
<path d="M21.6069 14.5714C21.6069 13.8282 21.6074 13.3101 21.6363 12.9051C21.6647 12.5073 21.7179 12.2763 21.7947 12.1002C22.0217 11.58 22.4369 11.1647 22.9572 10.9377C23.1332 10.8609 23.3642 10.8078 23.7621 10.7794C24.1671 10.7504 24.6851 10.75 25.4284 10.75C26.1716 10.75 26.6896 10.7504 27.0947 10.7794C27.4925 10.8078 27.7235 10.8609 27.8995 10.9377C28.4198 11.1647 28.8351 11.58 29.0621 12.1002C29.1389 12.2763 29.192 12.5073 29.2204 12.9051C29.2493 13.3101 29.2498 13.8282 29.2498 14.5714C29.2498 15.3147 29.2493 15.8327 29.2204 16.2377C29.192 16.6356 29.1389 16.8666 29.0621 17.0426C28.8351 17.5629 28.4198 17.9781 27.8995 18.2051C27.7235 18.2819 27.4925 18.3351 27.0947 18.3635C26.6896 18.3924 26.1716 18.3929 25.4284 18.3929C24.6851 18.3929 24.1671 18.3924 23.7621 18.3635C23.3642 18.3351 23.1332 18.2819 22.9572 18.2051C22.4369 17.9781 22.0217 17.5629 21.7947 17.0426C21.7179 16.8666 21.6647 16.6356 21.6363 16.2377C21.6074 15.8327 21.6069 15.3147 21.6069 14.5714Z" stroke="#9EFFCA" stroke-width="1.5"/>
<path d="M21.6069 25.4285C21.6069 24.6853 21.6074 24.1673 21.6363 23.7622C21.6647 23.3644 21.7179 23.1334 21.7947 22.9574C22.0217 22.4371 22.4369 22.0218 22.9572 21.7949C23.1332 21.718 23.3642 21.6649 23.7621 21.6365C24.1671 21.6076 24.6851 21.6071 25.4284 21.6071C26.1716 21.6071 26.6896 21.6076 27.0947 21.6365C27.4925 21.6649 27.7235 21.718 27.8995 21.7949C28.4198 22.0218 28.8351 22.4371 29.0621 22.9574C29.1389 23.1334 29.192 23.3644 29.2204 23.7622C29.2493 24.1673 29.2498 24.6853 29.2498 25.4285C29.2498 26.1718 29.2493 26.6898 29.2204 27.0948C29.192 27.4927 29.1389 27.7237 29.0621 27.8997C28.8351 28.42 28.4198 28.8352 27.8995 29.0622C27.7235 29.1391 27.4925 29.1922 27.0947 29.2206C26.6896 29.2495 26.1716 29.25 25.4284 29.25C24.6851 29.25 24.1671 29.2495 23.7621 29.2206C23.3642 29.1922 23.1332 29.1391 22.9572 29.0622C22.4369 28.8352 22.0217 28.42 21.7947 27.8997C21.7179 27.7237 21.6647 27.4927 21.6363 27.0948C21.6074 26.6898 21.6069 26.1718 21.6069 25.4285Z" stroke="#9EFFCA" stroke-width="1.5"/>
</g>
<defs>
<filter id="filter0_d_1549_265" x="-8" y="-8" width="56" height="56" filterUnits="userSpaceOnUse" color-interpolation-filters="sRGB">
<feFlood flood-opacity="0" result="BackgroundImageFix"/>
<feColorMatrix in="SourceAlpha" type="matrix" values="0 0 0 0 0 0 0 0 0 0 0 0 0 0 0 0 0 0 127 0" result="hardAlpha"/>
<feOffset/>
<feGaussianBlur stdDeviation="8"/>
<feComposite in2="hardAlpha" operator="out"/>
<feColorMatrix type="matrix" values="0 0 0 0 1 0 0 0 0 1 0 0 0 0 1 0 0 0 1 0"/>
<feBlend mode="overlay" in2="BackgroundImageFix" result="effect1_dropShadow_1549_265"/>
<feBlend mode="normal" in="SourceGraphic" in2="effect1_dropShadow_1549_265" result="shape"/>
</filter>
</defs>
</svg>
