<svg width="17" height="16" viewBox="0 0 17 16" fill="none" xmlns="http://www.w3.org/2000/svg">
<g filter="url(#filter0_b_1652_1808)">
<rect x="0.800781" y="16" width="16" height="16" rx="8" transform="rotate(-90 0.800781 16)" fill="#9EFFCA"/>
</g>
<path d="M12.8417 6.90761L9.29551 10.4643C9.2533 10.5066 9.20756 10.5365 9.15831 10.5543C9.10906 10.572 9.05629 10.5807 9 10.5804C8.94371 10.5804 8.89094 10.5717 8.84169 10.5543C8.79244 10.5368 8.7467 10.5068 8.70449 10.4643L5.14776 6.90761C5.04925 6.80911 5 6.68598 5 6.53822C5 6.39046 5.05277 6.26381 5.15831 6.15827C5.26385 6.05273 5.38698 5.99996 5.5277 5.99996C5.66843 5.99996 5.79156 6.05273 5.8971 6.15827L9 9.26118L12.1029 6.15827C12.2014 6.05977 12.3229 6.01052 12.4672 6.01052C12.6116 6.01052 12.7364 6.06329 12.8417 6.16883C12.9472 6.27437 13 6.3975 13 6.53822C13 6.67894 12.9472 6.80207 12.8417 6.90761Z" fill="#1F1A3C"/>
<defs>
<filter id="filter0_b_1652_1808" x="-179.199" y="-180" width="376" height="376" filterUnits="userSpaceOnUse" color-interpolation-filters="sRGB">
<feFlood flood-opacity="0" result="BackgroundImageFix"/>
<feGaussianBlur in="BackgroundImageFix" stdDeviation="90"/>
<feComposite in2="SourceAlpha" operator="in" result="effect1_backgroundBlur_1652_1808"/>
<feBlend mode="normal" in="SourceGraphic" in2="effect1_backgroundBlur_1652_1808" result="shape"/>
</filter>
</defs>
</svg>
