<svg width="49" height="50" viewBox="0 0 49 50" fill="none" xmlns="http://www.w3.org/2000/svg">
<path d="M23.5532 0.0953984C22.9339 0.305153 22.2742 0.896281 21.9713 1.50012C21.7626 1.91963 21.7559 2.05311 21.7088 5.91134C21.6953 7.60843 21.6415 11.4985 21.6011 14.5558C21.5607 17.6131 21.5405 20.645 21.5539 21.2933C21.5809 22.7871 21.6684 23.054 22.3415 23.7024C22.8598 24.1981 23.257 24.3952 23.9032 24.4905C25.0476 24.6558 26.4881 24.071 26.9256 23.2574C27.2689 22.6218 27.2689 22.6663 27.3631 16.3673C27.417 13.1129 27.491 8.73346 27.5315 6.63592C27.6055 2.73958 27.592 2.4027 27.3631 1.67174C27.1814 1.09332 26.3804 0.286085 25.8015 0.101755C25.4043 -0.0253695 23.9099 -0.0317257 23.5532 0.0953984ZM25.0678 6.71856C25.4447 6.97283 25.4514 7.06179 25.4312 10.4242L25.4111 13.507L25.2562 13.7104C24.9466 14.1235 24.2061 14.1363 23.9032 13.7358C23.7619 13.5578 23.7619 13.4752 23.7619 10.3353C23.7619 8.05974 23.782 7.08085 23.8359 6.96646C23.9436 6.75036 24.4081 6.53421 24.6841 6.57238C24.8052 6.58506 24.9802 6.65502 25.0678 6.71856Z" fill="#9EFFCA"/>
<path d="M15.2126 6.63586L14.977 6.7185V7.47487V8.23129L16.9627 8.29483L18.9485 8.35842L19.036 8.53636C19.1706 8.80336 19.1572 9.20376 19.0023 9.4008C18.8744 9.55973 18.8273 9.5661 18.1542 9.59784C17.5281 9.62327 17.4272 9.64869 17.2724 9.78219C16.9762 10.0491 16.9829 10.7039 17.2925 11.0725C17.407 11.206 17.4945 11.2251 18.107 11.2505C18.76 11.2822 18.8004 11.295 18.9619 11.473C19.1033 11.6255 19.1235 11.7018 19.0966 11.9306C19.0427 12.3883 18.9216 12.5027 18.4099 12.5535C17.959 12.6044 16.6935 12.5471 16.3771 12.4645L16.1953 12.42V11.2378C16.1886 9.78219 16.1886 9.78856 15.4482 9.78856H14.9635L14.9164 9.9856C14.8625 10.2398 14.8625 13.6214 14.9164 13.9264C14.9567 14.1426 14.977 14.1616 15.2462 14.1934C15.4077 14.2188 16.229 14.2506 17.0771 14.276C18.9014 14.3269 19.1841 14.2824 19.6553 13.8501C20.3486 13.2145 20.5303 12.2866 20.2274 10.8818C20.1197 10.3987 20.1265 10.3669 20.2544 10.0047C20.5101 9.3182 20.4024 8.066 20.0322 7.46855C19.7966 7.09353 19.3928 6.74393 19.1235 6.68039C18.6927 6.57868 15.4818 6.54052 15.2126 6.63586Z" fill="#9EFFCA"/>
<path d="M30.8299 6.68681C30.1163 6.87753 29.4432 7.65296 29.0124 8.7653C28.3257 10.5387 28.7296 12.8269 29.9413 14.0155C30.4798 14.5494 30.6279 14.5812 32.4185 14.6067C33.6436 14.6257 33.9869 14.613 34.0407 14.5431C34.1417 14.4287 34.1888 10.0175 34.0946 9.92212C34.0003 9.83315 31.8732 9.64248 31.5232 9.69333C31.1732 9.74418 30.85 10.0175 30.7894 10.3289C30.7356 10.6086 30.8702 11.1362 31.0385 11.3078C31.2001 11.4667 31.3077 11.4921 32.0415 11.5239C32.3579 11.5366 32.6877 11.5811 32.7752 11.6256C32.9233 11.7019 32.93 11.7337 32.9031 12.2485C32.8829 12.6172 32.8425 12.8079 32.7752 12.846C32.7213 12.8841 32.3646 12.8968 31.9742 12.8841C31.1597 12.8587 30.877 12.757 30.4731 12.3375C30.0221 11.8672 29.8336 11.1552 29.9547 10.3544C30.0826 9.52171 30.4596 8.82252 30.9308 8.56825C31.1866 8.42843 31.2674 8.42207 32.5262 8.42207C33.3878 8.42207 33.8792 8.39664 33.9263 8.35216C33.9734 8.30767 33.9936 8.00256 33.9801 7.49408L33.9599 6.70592L33.6234 6.66138C33.1051 6.59784 31.0924 6.6169 30.8299 6.68681Z" fill="#9EFFCA"/>
<path d="M12.8904 7.29697C11.7528 7.86267 10.0027 8.91779 9.25546 9.49622C5.62051 12.3056 3.30492 15.2422 1.68265 19.1004C0.464264 21.9989 -0.0675156 24.5604 0.0199926 27.0965C0.0738439 28.5903 0.242129 30.3954 0.410413 31.2725C1.2653 35.6965 3.67514 40.1077 6.89277 43.1269C8.56215 44.6969 9.78726 45.6439 11.4499 46.6292C14.7618 48.5996 18.2688 49.7055 22.0788 49.9789C23.0347 50.0424 21.5739 50.0615 11.5778 50.0869C4.11941 50.106 8.64962 50.1187 24.2328 50.1187C39.7352 50.1187 44.3664 50.106 37.0562 50.0869C30.7623 50.0678 25.7676 50.0488 25.9561 50.0361C28.1842 49.9344 32.1153 48.9937 34.3434 48.0275C34.552 47.9385 34.7405 47.8623 34.7607 47.8623C34.9021 47.8623 37.6418 46.3304 38.2678 45.8982C40.0583 44.6778 41.068 43.8197 42.3403 42.4595C42.6163 42.1607 42.8586 41.9065 42.8788 41.8874C43.101 41.6777 43.7135 40.9467 44.1241 40.3937C46.4666 37.2347 48.0687 33.1667 48.4053 29.4928C48.5062 28.4313 48.4457 25.8825 48.2976 24.5985C47.6716 19.1449 45.5041 14.6511 41.7681 11.0852C40.7046 10.0683 39.8093 9.37546 38.2476 8.37115C37.8302 8.10419 36.208 7.27155 35.73 7.08082C34.9963 6.78845 35.0435 6.67405 34.9963 8.83514C34.9761 9.86488 34.9492 11.6065 34.9425 12.6997L34.9358 14.6892L35.8849 15.5854C36.8071 16.4626 37.8639 17.6004 38.2813 18.1788C39.6747 20.0984 40.4959 21.8018 41.0209 23.8866C41.3642 25.2342 41.4181 25.7745 41.3777 27.4271C41.3104 29.9632 41.0075 31.495 40.1728 33.4654C39.5131 35.01 38.8265 36.0969 37.5879 37.5652C36.7398 38.5631 36.5782 38.722 35.5752 39.5674C33.3875 41.4107 30.5132 42.7709 27.6322 43.3176C26.057 43.6163 23.7886 43.6989 22.2336 43.5083C19.8036 43.2095 17.4476 42.4277 15.4551 41.2645C14.755 40.8577 13.1732 39.739 12.7222 39.3322C12.0086 38.6903 10.5008 36.9995 10.0027 36.2749C8.73715 34.4443 7.82168 32.226 7.36397 29.8742C7.2091 29.1051 7.18892 26.3528 7.3303 25.4249C7.65337 23.2192 8.1515 21.6747 9.08046 19.9458C10.2652 17.7338 11.6788 16.0749 13.5367 14.6956C13.8934 14.435 13.9944 14.3205 14.0213 14.1617C14.0752 13.8311 14.0819 7.29697 14.0348 7.09993C13.9607 6.8393 13.7386 6.87746 12.8904 7.29697ZM3.73572 25.9588C3.89728 26.0223 3.97132 26.0986 3.97132 26.1812C3.97132 26.3465 3.82996 26.4164 3.38569 26.4736L3.02893 26.5181V27.0012C3.03566 27.8656 3.21068 29.836 3.29818 30.014C3.4934 30.4081 4.28097 30.4971 4.63773 30.1666C4.80602 30.0077 4.81275 29.9695 4.81275 29.2831C4.81275 28.8953 4.77236 28.0054 4.71851 27.319C4.61754 25.9588 4.631 25.8698 4.9541 25.8698C5.14258 25.8698 5.2099 26.0668 5.31762 26.9185C5.41183 27.6813 5.48587 29.728 5.42532 30.0204C5.31762 30.5607 4.60407 30.9929 3.90401 30.9421C3.41935 30.9103 3.04239 30.7259 2.80006 30.3954C2.61158 30.1412 2.59812 30.0776 2.51734 29.0669C2.4231 27.9228 2.40964 26.3846 2.48369 26.1241C2.51734 26.0033 2.59138 25.9524 2.75967 25.927C3.17702 25.8571 3.50012 25.8698 3.73572 25.9588ZM45.4502 26.194C45.807 26.3656 46.0964 26.6706 46.1503 26.9313C46.2041 27.1919 46.0627 29.55 45.9685 29.9251C45.8137 30.5734 45.5444 30.8721 44.9858 31.012C44.4001 31.1582 43.5923 30.9166 43.2894 30.5034C43.1413 30.3001 43.1346 30.2492 43.175 29.6199C43.3231 27.2427 43.3433 27.0584 43.5183 26.7215C43.6596 26.4482 43.7539 26.3592 44.0366 26.2258C44.4876 26.016 45.0463 26.0033 45.4502 26.194ZM43.2019 33.6498C43.5519 33.8214 43.6462 33.974 43.6327 34.3871C43.626 34.5969 43.6462 34.7685 43.6731 34.7685C43.7 34.7685 43.8414 34.6986 43.9895 34.6096C44.2655 34.4507 44.7232 34.3935 44.7973 34.5142C44.8982 34.6668 44.7232 34.8448 44.1712 35.1308C43.35 35.5567 42.798 36.0969 42.4143 36.8342C42.2528 37.1457 42.1047 37.5207 42.0912 37.6606C42.0575 37.9021 42.071 37.9275 42.3739 38.1246C42.6095 38.2834 42.6836 38.3661 42.6634 38.4742C42.623 38.7602 42.0374 38.6585 41.6335 38.2962C41.27 37.9784 41.3036 37.7623 41.8422 36.7961C42.0845 36.3639 42.4615 35.6584 42.6836 35.2325C43.1346 34.3807 43.1548 34.1964 42.8115 34.1964C42.5692 34.1964 42.4951 34.3108 41.5258 36.135C40.8123 37.4826 40.6574 37.6923 40.4084 37.6923C40.1593 37.6923 40.2064 37.3745 40.543 36.777C40.7045 36.491 40.9806 35.9634 41.1623 35.5948C41.62 34.6795 41.9095 34.2091 42.1989 33.9231C42.5624 33.5544 42.8519 33.4782 43.2019 33.6498ZM5.3984 34.3871C6.77158 34.635 6.96681 34.6858 7.2091 34.9019C7.35723 35.0291 7.40434 35.1308 7.40434 35.3088C7.40434 35.83 6.23978 38.0101 5.90996 38.1118C5.5128 38.2263 5.59358 37.8512 6.19941 36.6817C6.46869 36.1605 6.69754 35.6392 6.71772 35.4931C6.74465 35.2388 6.7379 35.2261 6.52254 35.1626C6.39465 35.1244 5.84936 35.0227 5.30414 34.9337C4.11941 34.7367 3.76938 34.6223 3.76938 34.4253C3.76938 34.3426 3.78957 34.26 3.8165 34.2409C3.89728 34.1583 4.29443 34.1964 5.3984 34.3871ZM10.0565 39.4403C10.2921 39.5928 11.7057 40.7814 12.776 41.7349C13.2 42.1035 13.2741 42.2052 13.2808 42.3959C13.2943 42.5866 13.2674 42.6248 13.1395 42.6374C13.0183 42.6565 12.8366 42.5357 12.399 42.1544C12.0759 41.8811 11.7326 41.6014 11.6249 41.5378C11.4432 41.4298 11.4365 41.4298 11.2884 41.5442C11.2076 41.6141 11.1201 41.6904 11.0999 41.7158C11.0797 41.7412 10.8374 41.9828 10.5681 42.2434C10.1709 42.6248 10.0363 42.7137 9.90171 42.701C9.77377 42.6883 9.71991 42.6374 9.70647 42.523C9.69304 42.4023 9.78726 42.2497 10.0969 41.9192C10.3257 41.6713 10.6018 41.3471 10.7162 41.1946L10.9316 40.9086L10.3191 40.3683C9.65936 39.7772 9.45069 39.5293 9.51798 39.3767C9.57184 39.2369 9.77377 39.2623 10.0565 39.4403ZM38.6313 39.7517C38.7592 39.8916 38.5775 40.1586 38.1197 40.5208C37.9043 40.6925 37.5408 41.0039 37.3119 41.2073C37.0831 41.4171 36.8273 41.6268 36.7398 41.684C36.2215 42.0273 35.757 42.504 35.6627 42.7836C35.555 43.1332 35.7435 43.4638 36.1676 43.6608C36.4638 43.7943 36.5109 43.8006 36.7196 43.7243C36.9485 43.6354 38.3284 42.5548 39.0284 41.9065C39.3246 41.6395 39.3852 41.5442 39.365 41.398C39.3246 41.0675 39.0621 41.1755 38.1534 41.9192C37.285 42.6311 37.0023 42.8091 36.8475 42.7519C36.7465 42.7137 36.7196 42.4722 36.8071 42.3641C36.9417 42.1798 38.7255 40.7306 38.8736 40.6797C39.2169 40.559 39.4996 40.6035 39.7487 40.8196C40.2199 41.2327 40.1256 41.6904 39.4525 42.2815C37.5071 43.9722 36.9619 44.3663 36.5378 44.3663C35.9859 44.3663 35.407 44.004 35.1646 43.5146C34.8348 42.8472 34.9761 42.4976 35.8512 41.7285C36.208 41.4171 36.6186 41.0738 36.76 40.9594C36.908 40.845 37.2648 40.5463 37.561 40.2856C38.2947 39.6628 38.4764 39.5737 38.6313 39.7517ZM18.0938 44.271C18.3967 44.4744 18.6929 45.1036 19.0833 46.3813C19.2987 47.0932 19.292 47.4364 19.0631 47.4682C18.767 47.5127 18.6862 47.3474 18.2688 45.9236C18.0668 45.2181 17.8784 44.8113 17.7505 44.8113C17.6293 44.8113 16.9696 45.1545 16.2359 45.5931C15.4955 46.0444 15.2733 46.1461 15.0445 46.1461C14.9098 46.1461 14.8762 46.1143 14.8762 45.9935C14.8762 45.8092 15.2195 45.5041 15.8186 45.1609C16.0609 45.0274 16.4715 44.7731 16.7408 44.6079C17.0033 44.4362 17.2928 44.2774 17.3803 44.2456C17.6226 44.1502 17.9255 44.1629 18.0938 44.271ZM30.6815 44.6142C31.2335 44.8749 32.2566 45.5295 32.6134 45.8346C33.1048 46.2668 32.9836 46.5656 32.425 46.2923C32.3038 46.2351 31.8595 45.9745 31.4354 45.7011C30.594 45.1736 30.3651 45.0655 30.1295 45.0655C29.9411 45.0655 29.8872 45.1736 29.5237 46.305C29.1333 47.4936 29.0795 47.6016 28.891 47.6525C28.6486 47.7097 28.5409 47.5445 28.615 47.2393C28.6957 46.9152 29.3958 44.9066 29.4833 44.7477C29.5775 44.5824 29.8737 44.4362 30.1093 44.4299C30.2103 44.4299 30.4661 44.5125 30.6815 44.6142ZM24.98 45.949C25.256 46.2668 25.0204 46.7436 24.4684 46.9787C24.2059 47.0932 24.1992 47.0932 24.0847 46.9724C23.9434 46.8071 23.8559 46.8135 23.8088 46.9787L23.7684 47.1122L23.4856 46.966C23.0818 46.7436 22.8865 46.502 22.8865 46.2097C22.8865 45.8219 23.0144 45.7774 24.0107 45.7901C24.805 45.7965 24.8589 45.8092 24.98 45.949ZM23.3982 47.1313C23.6876 47.3601 23.6943 47.3728 23.5866 47.4872C23.4789 47.6016 23.4789 47.608 23.6809 47.608C23.8559 47.608 23.8963 47.6334 23.8963 47.7478C23.903 47.8877 23.9097 47.8813 24.004 47.7161C24.105 47.5381 24.1924 47.4999 24.2665 47.608C24.3203 47.697 24.4348 47.6907 24.4348 47.5953C24.4348 47.5572 24.3877 47.4745 24.3271 47.411C24.2261 47.3093 24.2396 47.2838 24.5088 47.1058C24.7377 46.947 24.8589 46.9088 25.1483 46.9088C25.4512 46.9088 25.5252 46.9342 25.6397 47.0741C25.7205 47.1694 25.7811 47.2838 25.7811 47.3347C25.7811 47.4745 25.5724 47.8177 25.4108 47.9322C25.3301 47.9957 25.2291 48.161 25.1887 48.3008C24.98 48.9364 24.253 48.9873 23.9838 48.3835L23.8895 48.161L23.7212 48.4979L23.5597 48.8347L23.277 48.7966C22.9336 48.7521 22.7586 48.5932 22.7048 48.269C22.6779 48.0974 22.5971 47.9576 22.4423 47.8241C22.2538 47.6589 22.2134 47.5762 22.2134 47.3601C22.2134 46.7817 22.7991 46.6673 23.3982 47.1313Z" fill="#9EFFCA"/>
<path d="M44.629 26.569C44.3194 26.6198 44.1107 26.7342 43.9963 26.9058C43.8751 27.0838 43.6597 29.1305 43.7068 29.6327C43.7674 30.3064 44.1242 30.6115 44.73 30.5352C45.0801 30.4844 45.2618 30.3763 45.356 30.1475C45.4839 29.8424 45.6455 27.7194 45.5714 27.3063C45.4705 26.7088 45.1743 26.48 44.629 26.569Z" fill="#9EFFCA"/>
<path d="M12.7557 22.9079C12.473 23.0223 12.1297 23.41 12.0758 23.677C11.9345 24.4016 12.4662 25.1071 13.1528 25.1071C13.5904 25.1071 14.1962 25.7872 14.102 26.1813C14.0818 26.2703 13.9135 26.5055 13.7318 26.6961C13.55 26.8869 13.3144 27.1919 13.2134 27.3699L13.0317 27.6941L13.6645 28.8001C14.0078 29.4103 14.351 29.976 14.4318 30.0523C14.5059 30.1349 14.9165 30.4209 15.3406 30.6879C15.7579 30.9548 16.1887 31.2726 16.2964 31.3998C16.4041 31.5205 16.7744 31.9591 17.1244 32.3659C17.811 33.1604 18.8476 34.4698 18.8476 34.5397C18.8476 34.6478 18.6255 34.4444 18.2283 33.9677C16.3503 31.7494 15.9599 31.3489 15.1252 30.7514C14.5463 30.3319 14.2231 30.0459 14.0212 29.7789C13.6173 29.2323 12.8567 27.7958 12.8567 27.567C12.8567 27.4653 12.924 27.2809 12.998 27.1602C13.2875 26.7216 13.1057 25.9207 12.648 25.6092C12.3182 25.3868 11.645 25.3677 11.2748 25.5648C10.9517 25.7427 10.7026 26.1622 10.7026 26.5373C10.7026 26.6771 10.7699 26.925 10.8575 27.0775C11.0526 27.4526 11.369 27.6496 11.7797 27.6496C12.2778 27.6496 12.3182 27.7005 13.301 29.4802C13.7587 30.3192 13.8731 30.4463 14.7819 31.0946C15.5021 31.6032 16.3839 32.5185 17.5956 33.9995C18.3091 34.8703 18.3764 34.9274 19.1505 35.3343C20.066 35.8173 20.4161 36.1923 21.5065 37.8831C21.8363 38.3916 22.3816 39.1925 22.7182 39.6628C23.6538 40.9659 23.849 41.2963 23.8423 41.5125C23.8356 41.6587 23.8625 41.6968 23.9366 41.6714C23.9972 41.6523 24.0846 41.6333 24.1385 41.6333C24.1991 41.6333 24.2328 41.5633 24.2328 41.4235C24.2328 41.2709 24.3135 41.112 24.5356 40.8387C24.704 40.6353 25.0674 40.1268 25.3502 39.7136C26.5618 37.9022 27.5378 36.6881 28.7158 35.5186C29.0255 35.2135 29.5438 34.6287 29.8736 34.2156C30.2035 33.8024 30.5939 33.3638 30.742 33.2303C31.0315 32.9888 31.0045 32.9951 32.4787 32.7346C33.3538 32.5756 33.7105 32.3913 34.1144 31.8828C34.4645 31.4506 34.7404 30.923 34.6933 30.8023C34.626 30.6434 34.101 30.6751 33.2932 30.8913C32.3643 31.1392 32.0075 31.3108 31.5834 31.7303C31.3949 31.9146 31.2199 32.0481 31.1997 32.0227C31.1728 31.9972 31.2469 31.8193 31.368 31.6222C31.5699 31.2854 31.5834 31.2345 31.5565 30.7768C31.5296 30.2747 31.1593 28.8954 30.9978 28.6857C30.9103 28.5776 30.9036 28.5776 30.7689 28.692C30.6949 28.7556 30.5064 29.0098 30.3448 29.264L30.0554 29.7154L30.0621 30.3828C30.0689 30.7514 30.1227 31.2472 30.1833 31.4824C30.3314 32.0735 30.3179 32.6329 30.1564 32.9825C29.9746 33.3575 29.7188 33.6562 28.763 34.5906C27.9283 35.4105 26.9792 36.5546 26.4339 37.3873C26.1781 37.7877 25.8483 38.3089 24.5424 40.4128C24.4279 40.6035 24.2597 40.826 24.1654 40.915C24.0106 41.0612 23.9972 41.0676 23.9096 40.9531C23.7548 40.7624 23.1625 39.7772 22.1864 38.1056C21.3786 36.7262 20.7459 35.7982 19.7093 34.4698C19.3929 34.063 19.3458 33.9422 19.2919 33.4592C19.1775 32.493 19.2246 32.5947 18.4572 31.7303C17.5754 30.7324 16.8955 29.6581 16.8955 29.2577C16.8955 29.0289 16.9426 28.9399 17.1985 28.6729C17.5148 28.3297 17.6158 28.0501 17.535 27.7005C17.3465 26.8741 16.5791 26.4356 15.8387 26.7279C15.5425 26.8487 15.455 26.7915 15.6771 26.6262C15.7915 26.5373 15.9397 26.5055 16.2493 26.5055C16.983 26.5055 17.4475 26.1178 17.4879 25.463C17.5081 25.1198 17.4879 25.0435 17.3129 24.783C17.0436 24.3889 16.6195 24.1918 16.1214 24.2299C15.2867 24.2935 14.8963 24.9736 15.1588 25.8953C15.2329 26.1622 15.2261 26.1877 15.0578 26.3911C14.3376 27.2301 14.0683 27.6051 14.0683 27.7767C14.0683 27.8149 14.2434 28.1454 14.4587 28.514C14.7684 29.0543 14.9299 29.264 15.3002 29.5692C15.7041 29.9124 15.8589 30.1285 15.6906 30.1285C15.6637 30.1285 15.4348 29.9887 15.1925 29.8107C14.8492 29.5692 14.6809 29.3785 14.4184 28.9717C13.9808 28.2852 13.7991 27.9356 13.7991 27.7958C13.7991 27.6432 14.0212 27.3064 14.4992 26.7343C14.7347 26.4419 14.8963 26.194 14.8963 26.0987C14.8963 26.0097 14.7549 25.7237 14.5799 25.463C14.2366 24.9418 14.2231 24.8783 14.378 24.446C14.7415 23.4418 13.7452 22.5011 12.7557 22.9079ZM13.5702 23.3655C13.9808 23.5499 14.1087 23.9566 13.8664 24.3253C13.5635 24.802 12.7894 24.713 12.5942 24.1855C12.5134 23.9566 12.5134 23.8995 12.6144 23.696C12.7221 23.4799 13.0384 23.2702 13.2471 23.2638C13.301 23.2638 13.4423 23.3083 13.5702 23.3655ZM16.6061 24.7893C16.8686 24.9355 17.01 25.3169 16.9157 25.5902C16.8215 25.8571 16.532 26.0287 16.1753 26.0287C15.7781 26.0287 15.5493 25.8 15.5493 25.3995C15.5493 24.8211 16.1012 24.4969 16.6061 24.7893ZM12.2912 25.9843C12.5538 26.1559 12.6749 26.6771 12.5201 26.9568C12.4326 27.103 12.1095 27.2682 11.9143 27.2682C11.6787 27.2682 11.3354 27.0839 11.2479 26.9123C11.0055 26.4101 11.3421 25.9334 11.9479 25.9334C12.0961 25.9334 12.2509 25.9588 12.2912 25.9843ZM16.7474 27.2809C17.0773 27.6178 17.0705 28.1644 16.7273 28.3742C16.532 28.495 16.0339 28.5077 15.8858 28.3933C15.6973 28.2598 15.5493 28.0055 15.5493 27.8403C15.5627 27.3 16.3772 26.9186 16.7474 27.2809Z" fill="#9EFFCA"/>
<path d="M35.7437 23.0032C35.7437 23.124 35.4004 23.4418 35.2321 23.4799C34.9898 23.5371 34.835 23.7214 34.5522 24.2808C34.1685 25.0435 34.1685 25.7745 34.5657 26.1241C34.7205 26.2639 34.7273 26.2639 35.084 26.1558C35.5686 26.0033 35.8379 25.7173 36.0129 25.1834C36.2216 24.5541 36.2485 24.1155 36.1139 23.7723C36.0533 23.6134 35.9658 23.3655 35.9254 23.2129C35.8581 22.9778 35.7437 22.8443 35.7437 23.0032Z" fill="#9EFFCA"/>
<path d="M32.7007 24.8973C32.2969 25.7109 32.3103 25.8953 32.8354 27.141C33.3402 28.3297 33.3469 28.336 33.5017 28.2471C33.8518 28.0437 34.1547 27.3 34.1614 26.6326C34.1614 26.2576 34.1278 26.1558 33.7778 25.4884C33.3267 24.624 33.145 24.3444 33.044 24.3444C33.0104 24.3444 32.8488 24.5923 32.7007 24.8973Z" fill="#9EFFCA"/>
<path d="M36.3626 26.0287C35.2385 26.3846 34.8413 26.5881 34.5385 26.9694C34.1615 27.4525 33.9191 27.9419 33.9057 28.247C33.8923 28.5012 33.8989 28.5076 34.0942 28.4886C34.4038 28.4568 35.4203 28.1199 35.8914 27.8974C36.3963 27.6622 36.5915 27.5034 36.7531 27.2046C36.854 27.0139 37.2916 25.9079 37.2916 25.8316C37.2916 25.7681 37.0088 25.8253 36.3626 26.0287Z" fill="#9EFFCA"/>
<path d="M31.9066 26.6452C31.6374 27.0393 31.3479 27.713 31.3143 28.0182C31.2941 28.2787 31.3345 28.4949 31.5229 29.0669C31.6508 29.4547 31.7787 29.8805 31.8057 30.0013C31.8663 30.2809 32.0143 30.5098 32.1355 30.5098C32.2836 30.5098 32.9029 29.5118 32.9904 29.1305C33.0577 28.8635 33.051 28.7174 32.9904 28.4249C32.8154 27.6813 32.2634 26.5054 32.0817 26.5054C32.0413 26.5054 31.9605 26.569 31.9066 26.6452Z" fill="#9EFFCA"/>
<path d="M35.5416 28.3551C34.2694 28.7174 33.7241 28.9462 33.4078 29.2386C32.8827 29.7153 32.3173 30.6624 32.4654 30.8086C32.526 30.8658 33.4751 30.6751 34.3165 30.4336C34.9223 30.2619 35.0435 30.1984 35.306 29.9441C35.6157 29.6454 36.1071 28.8 36.1879 28.425C36.2417 28.1771 36.1811 28.1708 35.5416 28.3551Z" fill="#9EFFCA"/>
</svg>
