<svg width="33" height="40" viewBox="0 0 33 40" fill="none" xmlns="http://www.w3.org/2000/svg">
<path d="M2.3534 35.5556C2.3534 38 4.47145 40 7.06019 40H25.8874C28.4761 40 30.5941 38 30.5941 35.5556V13.3333C30.5941 10.8889 28.4761 8.88889 25.8874 8.88889H7.06019C4.47145 8.88889 2.3534 10.8889 2.3534 13.3333V35.5556ZM9.41358 13.3333H23.534C24.8283 13.3333 25.8874 14.3333 25.8874 15.5556V33.3333C25.8874 34.5556 24.8283 35.5556 23.534 35.5556H9.41358C8.11921 35.5556 7.06019 34.5556 7.06019 33.3333V15.5556C7.06019 14.3333 8.11921 13.3333 9.41358 13.3333ZM24.7107 2.22222L23.0397 0.644444C22.6161 0.244444 22.0042 0 21.3924 0H11.5552C10.9433 0 10.3314 0.244444 9.90779 0.644444L8.23688 2.22222H2.3534C1.05903 2.22222 0 3.22222 0 4.44444C0 5.66667 1.05903 6.66667 2.3534 6.66667H30.5941C31.8885 6.66667 32.9475 5.66667 32.9475 4.44444C32.9475 3.22222 31.8885 2.22222 30.5941 2.22222H24.7107Z" fill="white"/>
</svg>
