<svg width="14" height="16" viewBox="0 0 14 16" fill="none" xmlns="http://www.w3.org/2000/svg">
<path d="M0.941358 14.2222C0.941358 15.2 1.78858 16 2.82407 16H10.3549C11.3904 16 12.2377 15.2 12.2377 14.2222V5.33333C12.2377 4.35556 11.3904 3.55556 10.3549 3.55556H2.82407C1.78858 3.55556 0.941358 4.35556 0.941358 5.33333V14.2222ZM3.76543 5.33333H9.41358C9.93133 5.33333 10.3549 5.73333 10.3549 6.22222V13.3333C10.3549 13.8222 9.93133 14.2222 9.41358 14.2222H3.76543C3.24769 14.2222 2.82407 13.8222 2.82407 13.3333V6.22222C2.82407 5.73333 3.24769 5.33333 3.76543 5.33333ZM9.88426 0.888889L9.2159 0.257778C9.04645 0.0977777 8.8017 0 8.55695 0H4.62207C4.37732 0 4.13256 0.0977777 3.96312 0.257778L3.29475 0.888889H0.941358C0.423611 0.888889 0 1.28889 0 1.77778C0 2.26667 0.423611 2.66667 0.941358 2.66667H12.2377C12.7554 2.66667 13.179 2.26667 13.179 1.77778C13.179 1.28889 12.7554 0.888889 12.2377 0.888889H9.88426Z" fill="white"/>
</svg>
