<svg width="16" height="18" viewBox="0 0 16 18" fill="none" xmlns="http://www.w3.org/2000/svg">
<path d="M1.35395 16C1.35395 17.1 2.30707 18 3.47201 18H11.9442C13.1092 18 14.0623 17.1 14.0623 16V6C14.0623 4.9 13.1092 4 11.9442 4H3.47201C2.30707 4 1.35395 4.9 1.35395 6V16ZM4.53103 6H10.8852C11.4677 6 11.9442 6.45 11.9442 7V15C11.9442 15.55 11.4677 16 10.8852 16H4.53103C3.94857 16 3.47201 15.55 3.47201 15V7C3.47201 6.45 3.94857 6 4.53103 6ZM11.4147 1L10.6628 0.29C10.4722 0.11 10.1968 0 9.92149 0H5.49475C5.2194 0 4.94405 0.11 4.75343 0.29L4.00152 1H1.35395C0.771484 1 0.294922 1.45 0.294922 2C0.294922 2.55 0.771484 3 1.35395 3H14.0623C14.6447 3 15.1213 2.55 15.1213 2C15.1213 1.45 14.6447 1 14.0623 1H11.4147Z" fill="white"/>
</svg>
