<svg width="26" height="24" viewBox="0 0 26 24" fill="none" xmlns="http://www.w3.org/2000/svg">
<g clip-path="url(#clip0_1822_1480)">
<path d="M6.35395 19C6.35395 20.1 7.30707 21 8.47201 21H16.9442C18.1092 21 19.0623 20.1 19.0623 19V9C19.0623 7.9 18.1092 7 16.9442 7H8.47201C7.30707 7 6.35395 7.9 6.35395 9V19ZM9.53103 9H15.8852C16.4677 9 16.9442 9.45 16.9442 10V18C16.9442 18.55 16.4677 19 15.8852 19H9.53103C8.94857 19 8.47201 18.55 8.47201 18V10C8.47201 9.45 8.94857 9 9.53103 9ZM16.4147 4L15.6628 3.29C15.4722 3.11 15.1968 3 14.9215 3H10.4947C10.2194 3 9.94405 3.11 9.75343 3.29L9.00152 4H6.35395C5.77148 4 5.29492 4.45 5.29492 5C5.29492 5.55 5.77148 6 6.35395 6H19.0623C19.6447 6 20.1213 5.55 20.1213 5C20.1213 4.45 19.6447 4 19.0623 4H16.4147Z" fill="white"/>
</g>
<defs>
<clipPath id="clip0_1822_1480">
<rect width="25.4167" height="24" fill="white"/>
</clipPath>
</defs>
</svg>
