<svg width="19" height="19" viewBox="0 0 19 19" fill="none" xmlns="http://www.w3.org/2000/svg">
<path d="M2 17H3.4L12.025 8.375L10.625 6.975L2 15.6V17ZM16.3 6.925L12.05 2.725L13.45 1.325C13.8333 0.941667 14.3043 0.75 14.863 0.75C15.4217 0.75 15.8923 0.941667 16.275 1.325L17.675 2.725C18.0583 3.10833 18.2583 3.571 18.275 4.113C18.2917 4.655 18.1083 5.11733 17.725 5.5L16.3 6.925ZM1 19C0.71667 19 0.479003 18.904 0.287003 18.712C0.0950034 18.52 -0.000663206 18.2827 3.46021e-06 18V15.175C3.46021e-06 15.0417 0.0250035 14.9123 0.0750035 14.787C0.125004 14.6617 0.200003 14.5493 0.300003 14.45L10.6 4.15L14.85 8.4L4.55 18.7C4.45 18.8 4.33767 18.875 4.213 18.925C4.08834 18.975 3.959 19 3.825 19H1ZM11.325 7.675L10.625 6.975L12.025 8.375L11.325 7.675Z" fill="#9EFFCA"/>
</svg>
