<svg width="121" height="100" viewBox="0 0 121 100" fill="none" xmlns="http://www.w3.org/2000/svg">
<g clip-path="url(#clip0_2279_1633)">
<path d="M68.75 37.5C68.75 42.4728 66.7746 47.2419 63.2583 50.7583C59.7419 54.2746 54.9728 56.25 50 56.25C45.0272 56.25 40.2581 54.2746 36.7417 50.7583C33.2254 47.2419 31.25 42.4728 31.25 37.5C31.25 32.5272 33.2254 27.7581 36.7417 24.2417C40.2581 20.7254 45.0272 18.75 50 18.75C54.9728 18.75 59.7419 20.7254 63.2583 24.2417C66.7746 27.7581 68.75 32.5272 68.75 37.5Z" fill="white"/>
<path fill-rule="evenodd" clip-rule="evenodd" d="M0 50C0 36.7392 5.26784 24.0215 14.6447 14.6447C24.0215 5.26784 36.7392 0 50 0C63.2608 0 75.9785 5.26784 85.3553 14.6447C94.7322 24.0215 100 36.7392 100 50C100 63.2608 94.7322 75.9785 85.3553 85.3553C75.9785 94.7322 63.2608 100 50 100C36.7392 100 24.0215 94.7322 14.6447 85.3553C5.26784 75.9785 0 63.2608 0 50ZM50 6.25C41.7611 6.25044 33.6898 8.57727 26.715 12.9627C19.7402 17.3481 14.1455 23.6138 10.5748 31.0387C7.00403 38.4636 5.60242 46.7459 6.53124 54.9322C7.46006 63.1186 10.6816 70.8763 15.825 77.3125C20.2625 70.1625 30.0313 62.5 50 62.5C69.9687 62.5 79.7313 70.1562 84.175 77.3125C89.3184 70.8763 92.5399 63.1186 93.4688 54.9322C94.3976 46.7459 92.996 38.4636 89.4252 31.0387C85.8545 23.6138 80.2598 17.3481 73.285 12.9627C66.3102 8.57727 58.2389 6.25044 50 6.25Z" fill="white"/>
</g>
<path d="M100 57.1667C88.4795 57.1667 79.167 66.4792 79.167 78.0001C79.167 89.5209 88.4795 98.8334 100 98.8334C111.521 98.8334 120.834 89.5209 120.834 78.0001C120.834 66.4792 111.521 57.1667 100 57.1667ZM106.459 67.7292C106.75 67.7292 107.042 67.8334 107.292 68.0626L109.938 70.7084C110.417 71.1667 110.417 71.8959 109.938 72.3334L107.854 74.4167L103.584 70.1459L105.667 68.0626C105.875 67.8334 106.167 67.7292 106.459 67.7292ZM102.354 71.3543L106.646 75.6459L94.0212 88.2709H89.7295V83.9792L102.354 71.3543Z" fill="white"/>
<defs>
<clipPath id="clip0_2279_1633">
<rect width="100" height="100" fill="white"/>
</clipPath>
</defs>
</svg>
