<svg width="92" height="44" viewBox="0 0 92 44" fill="none" xmlns="http://www.w3.org/2000/svg">
<path d="M1.78241 1.55794C1.62863 2.09612 1.2903 3.40338 1.01348 4.47986L0.521362 6.44837H3.99695C5.91929 6.44837 7.51867 6.47905 7.56482 6.52518C7.61096 6.57132 7.41102 7.4479 7.11882 8.49369C6.84201 9.52403 6.25761 11.6463 5.84239 13.2149C5.42716 14.7835 4.59671 17.8901 3.99695 20.1353C3.39718 22.3807 2.70513 24.9489 2.45908 25.8717L2.01309 27.5171L6.04232 27.4864L10.0562 27.4403L10.2407 26.7483C10.4714 25.8562 14.1469 12.2154 14.839 9.67789C15.1158 8.61676 15.4388 7.46336 15.531 7.09427L15.7001 6.44837H19.7448H23.7894L24.4506 3.71088C24.8197 2.21919 25.1427 0.896579 25.1888 0.788967C25.235 0.650559 24.9889 0.604422 24.2508 0.604422C23.0973 0.604422 23.3126 0.281471 22.5899 3.01884L22.2208 4.44906H18.0685H13.9163L12.3938 10.1085C11.5479 13.2149 10.4561 17.2442 9.9639 19.0589C9.47174 20.8735 8.88743 23.0727 8.65675 23.9339L8.22607 25.5179H6.56519C5.05807 25.5179 4.90429 25.4871 4.98119 25.2411C5.10421 24.8105 7.84164 14.6759 8.303 12.9074C9.2872 9.21653 10.3022 5.51019 10.5483 4.71054C10.6251 4.46451 10.3791 4.44906 6.84201 4.44906C3.33566 4.44906 3.04347 4.43372 3.13575 4.1877C3.24339 3.91088 3.99695 0.850443 3.99695 0.696694C3.99695 0.650558 3.55097 0.604422 3.01271 0.604422H2.02848L1.78241 1.55794Z" fill="white"/>
<path d="M25.7886 5.97146C25.5579 6.81737 25.3734 7.61703 25.3734 7.74009C25.3734 7.95532 24.8812 7.98611 21.1596 7.98611H16.9612L16.7151 8.8627C16.5767 9.35486 15.531 13.2456 14.3622 17.5209C13.2088 21.7961 12.04 26.1176 11.7632 27.1326L11.2557 28.978L8.42607 29.0242L5.58097 29.055L5.33491 29.9777C5.18112 30.4852 5.07347 30.9619 5.07347 31.0542C5.07347 31.1464 6.45755 31.2079 9.05652 31.2079C12.7167 31.2079 13.0397 31.1926 13.1165 30.9311C13.2396 30.4852 15.9616 20.3506 16.7151 17.5978C17.0997 16.1522 17.6994 13.9069 18.0531 12.5997L18.7144 10.216L22.7589 10.1392L26.8189 10.0622L27.388 7.77077C27.6955 6.5251 28.0031 5.24874 28.0646 4.97193L28.1569 4.44897H27.1727H26.1885L25.7886 5.97146Z" fill="#B20000"/>
<path d="M30.4483 15.6756V24.5952H31.9862H33.5241V20.9043V17.2134H37.3534H41.1827L41.2442 15.9677C41.275 15.2757 41.2595 14.6606 41.2134 14.5837C41.1672 14.5067 39.4295 14.4299 37.3687 14.4145L33.6009 14.3683V11.9847V9.60096L37.7993 9.55482L41.9824 9.52403V8.13994V6.75586H36.2153H30.4483V15.6756Z" fill="white"/>
<path d="M58.3915 8.55512C58.3299 8.60126 58.2837 9.40103 58.2837 10.3237V11.9846H57.2842H56.2845V13.2149V14.4452H57.2842H58.2837V17.7209C58.2837 21.7194 58.4068 22.3191 59.4987 23.3648C60.4521 24.303 61.3903 24.5951 63.3742 24.5951H64.8967V23.3648V22.1346H63.7433C62.9896 22.1346 62.4053 22.0423 62.113 21.8885C61.3134 21.4887 61.2058 20.9657 61.2058 17.521V14.4452H62.9743H64.7428V13.2149V11.9846H62.9743H61.2058V10.216V8.44751H59.8524C59.0988 8.44751 58.4376 8.49365 58.3915 8.55512Z" fill="white"/>
<path d="M47.9185 11.8462C46.8881 12 45.6578 12.5228 44.9812 13.0919C44.3968 13.5994 43.8585 14.6605 43.7355 15.5832L43.6278 16.2906H45.0119H46.396L46.5652 15.7062C46.6728 15.3832 46.8881 14.9835 47.0419 14.8451C47.78 14.1684 49.5025 13.9377 50.5482 14.3682C51.3941 14.722 51.7324 15.2603 51.7939 16.3829L51.8555 17.3364L49.118 17.3979C46.9189 17.4594 46.2422 17.521 45.7501 17.7362C44.12 18.459 43.4587 19.4432 43.4433 21.1349C43.4433 22.5959 43.9201 23.5493 44.9812 24.2107C45.6732 24.6413 45.827 24.672 47.2725 24.672C48.8105 24.672 48.8412 24.6566 50.333 23.9492L51.8247 23.2264V23.9031V24.5951H53.301H54.7774L54.7159 19.9354C54.639 14.6759 54.5928 14.399 53.4856 13.261C52.7166 12.4767 51.7477 12.0308 50.333 11.8308C49.1641 11.6617 49.1641 11.6617 47.9185 11.8462ZM51.7939 20.1661L51.7478 20.9657L50.5021 21.6271C48.5644 22.6574 47.1035 22.765 46.519 21.9346C46.2114 21.504 46.2269 20.5966 46.5344 20.1507C46.9804 19.5201 47.5955 19.3817 49.7947 19.3664H51.84L51.7939 20.1661Z" fill="white"/>
<path d="M69.7716 12.1845C68.5106 12.6305 67.4034 13.6301 66.8651 14.8143C66.5421 15.5371 66.5113 15.7985 66.5113 18.4437C66.5113 21.258 66.5113 21.3041 66.942 22.1653C67.6647 23.6416 68.9565 24.4721 70.9865 24.7643C72.9397 25.0565 75.1234 24.5336 76.3845 23.4571C76.9227 22.9957 77.4302 22.0423 77.5686 21.1657L77.6764 20.5966H76.323H74.9542L74.6621 21.2425C74.2468 22.1191 73.5395 22.4729 72.1554 22.4729C70.2791 22.4882 69.3411 21.7347 69.2333 20.1046L69.1719 19.2125H73.4164H77.6609V17.9054C77.6609 14.9219 76.7843 13.2456 74.739 12.3229C73.4779 11.7385 71.2172 11.677 69.7716 12.1845ZM73.7547 14.6144C74.4006 15.0142 74.8774 15.9369 74.8927 16.7828V17.3671H72.0476H69.2027V16.8289C69.2027 15.6447 69.9254 14.6297 71.0173 14.276C71.7093 14.0608 73.1396 14.2298 73.7547 14.6144Z" fill="white"/>
<path d="M83.4126 12.1384C82.3361 12.4922 81.1827 13.4149 80.7367 14.2915C80.26 15.2295 80.0754 16.7674 80.1522 19.105C80.2292 21.1503 80.26 21.2734 80.752 22.2576C81.4441 23.611 82.4591 24.3337 84.12 24.6874C86.7652 25.2411 89.3488 24.4106 90.4406 22.6574C90.779 22.1038 91.1942 20.7505 91.1942 20.1661C91.1942 19.8431 91.1481 19.8278 89.7332 19.8278H88.2722V20.3198C88.2722 21.5194 87.2265 22.3345 85.6579 22.3345C84.5198 22.3345 83.7202 21.9501 83.3511 21.1964C83.0896 20.6889 83.0435 20.2892 83.0435 18.336C83.0435 15.6294 83.1972 15.1834 84.2738 14.6298C86.0577 13.7378 88.2722 14.6759 88.2722 16.3521V16.752H89.7332C91.3941 16.752 91.3326 16.829 90.9481 15.3371C90.5483 13.7685 89.7486 12.8612 88.1954 12.1999C87.2111 11.7847 84.5968 11.754 83.4126 12.1384Z" fill="white"/>
<path d="M54.2852 30.5775V33.8223H54.9005H55.5156V32.6074V31.3925L56.7304 31.3463C58.1915 31.2695 58.7143 30.9619 59.0219 30.0084C59.2065 29.4702 59.2065 29.2549 59.0219 28.7166C58.6836 27.6709 58.2837 27.4863 56.1461 27.3941L54.2852 27.3171V30.5775ZM57.607 28.8243C57.8993 29.2087 57.8838 29.6547 57.5609 30.0084C57.3763 30.2084 57.0842 30.2852 56.4075 30.2852H55.5156V29.3471V28.4091L56.4536 28.4705C57.1457 28.5167 57.4533 28.6243 57.607 28.8243Z" fill="white"/>
<path d="M84.12 27.9785V28.609L84.7044 28.5629C85.2426 28.5168 85.2734 28.486 85.2734 27.9785C85.2734 27.471 85.2426 27.4403 84.7044 27.3942L84.12 27.348V27.9785Z" fill="white"/>
<path d="M61.2058 29.3319C60.3907 29.7316 59.9754 30.4698 59.9754 31.5003C59.9754 32.992 60.8367 33.8839 62.2822 33.8839C63.7125 33.8839 64.589 32.9612 64.589 31.4848C64.589 30.0854 63.6202 29.0551 62.2822 29.0551C61.9901 29.0551 61.4979 29.178 61.2058 29.3319ZM62.636 30.1469C63.5894 30.5775 63.5894 32.6075 62.636 32.8382C61.6825 33.0842 60.9135 32.223 61.1442 31.1465C61.2826 30.4853 61.5441 30.2085 62.2361 29.9931C62.2514 29.9778 62.436 30.0546 62.636 30.1469Z" fill="white"/>
<path d="M67.1573 29.3625C66.6805 29.624 66.5882 29.624 66.5882 29.4395C66.5882 29.2857 66.4191 29.2088 66.0501 29.2088H65.5118V31.5156V33.8224H66.1269H66.7421V32.2384C66.7421 30.5159 66.942 29.9778 67.5725 29.9778C68.1877 29.9778 68.2799 30.2391 68.2799 32.0846V33.8224H68.895H69.5103V32.2076C69.5103 30.7928 69.5564 30.5467 69.8178 30.2853C69.987 30.1162 70.2484 29.9778 70.4022 29.9778C70.9558 29.9778 71.0481 30.2853 71.0481 32.0846V33.8224H71.6787H72.3091L72.2476 31.8232C72.2015 30.0546 72.1707 29.7932 71.8785 29.5164C71.3864 29.0242 70.5559 28.9473 69.8947 29.3472L69.3257 29.6702L68.9412 29.3625C68.4337 28.9781 67.8955 28.9781 67.1573 29.3625Z" fill="white"/>
<path d="M75.2157 29.4548C74.7543 29.8394 74.739 29.8394 74.739 29.5318C74.739 29.2703 74.6467 29.2088 74.2007 29.2088H73.6624V32.3614V35.5141H74.2776H74.8927V34.453V33.3919L75.4772 33.6994C77.1842 34.6375 78.799 32.2385 77.8146 30.2085C77.261 29.0704 76.0769 28.7167 75.2157 29.4548ZM76.3691 30.1007C76.9689 30.4853 77.0765 32.0078 76.569 32.6537C76.1538 33.1765 75.6156 33.1765 75.2003 32.6229C74.9235 32.2691 74.8774 32.0539 74.9235 31.3003C74.9697 30.6544 75.0773 30.3469 75.2772 30.193C75.5848 29.9623 76.1076 29.9162 76.3691 30.1007Z" fill="white"/>
<path d="M80.0293 29.2703C79.0758 29.6855 78.5683 30.9158 78.799 32.2077C79.1219 33.8993 81.3365 34.5145 82.5513 33.2534C82.8281 32.9612 83.0127 32.6537 82.9666 32.5767C82.7975 32.3153 81.8901 32.423 81.6133 32.7459C81.2595 33.1612 80.7982 33.1304 80.3522 32.669C79.6294 31.9462 79.7986 31.8232 81.5057 31.8232H83.0435V31.2388C83.0435 29.6394 81.5057 28.6244 80.0293 29.2703ZM81.4595 30.1007C81.5518 30.1623 81.7055 30.4083 81.7978 30.639L81.967 31.0543H80.9674C80.183 31.0543 79.9677 31.0081 79.9677 30.8236C79.9677 30.2546 80.9366 29.7778 81.4595 30.1007Z" fill="white"/>
<path d="M87.3495 29.2087C86.9343 29.3933 86.4422 29.9469 86.4268 30.2237C86.4268 30.3313 86.6574 30.4391 86.9497 30.4697C87.3341 30.5159 87.5187 30.4544 87.6418 30.2545C87.98 29.7009 89.2257 30.07 88.995 30.639C88.9489 30.762 88.4875 30.9466 87.9647 31.0388C86.7652 31.2849 86.273 31.7154 86.273 32.5613C86.273 33.6993 87.4879 34.2837 88.626 33.6839C89.1181 33.4379 89.2257 33.4225 89.3027 33.607C89.3488 33.7301 89.5948 33.8223 89.887 33.8223H90.3791L90.3176 32.2384C90.2407 30.1623 90.1638 29.7624 89.8255 29.4394C89.4717 29.1318 87.9031 28.9781 87.3495 29.2087ZM88.8105 32.6843C88.4722 33.2226 87.5802 33.1611 87.5033 32.592C87.4264 32.1 87.534 31.9769 88.2415 31.777C88.9642 31.5617 88.9642 31.5617 89.0104 31.9308C89.0412 32.1306 88.9489 32.4691 88.8105 32.6843Z" fill="white"/>
<path d="M84.12 31.5155V33.8224H84.7351H85.3503V31.5155V29.2087H84.7351H84.12V31.5155Z" fill="white"/>
<path d="M22.0208 38.7436C21.5902 39.1434 21.5749 39.9739 21.9746 40.343C22.1285 40.4814 22.6205 40.712 23.0819 40.8659C23.7125 41.0658 23.9278 41.2042 23.9585 41.4657C24.0662 42.2039 22.8359 42.3115 22.3745 41.6041C22.2053 41.3579 22.0362 41.2657 21.8362 41.3118C21.4057 41.4195 21.4518 41.7732 21.9746 42.2961C22.3592 42.6806 22.5437 42.742 23.2203 42.742C23.897 42.742 24.0815 42.6806 24.466 42.2961C25.2964 41.4502 24.8812 40.4507 23.5279 40.1123C22.6052 39.8816 22.3284 39.6202 22.6052 39.2818C22.882 38.9589 23.4818 38.9897 23.7894 39.3588C23.9431 39.528 24.22 39.6664 24.4198 39.6664C24.7121 39.6664 24.7582 39.6048 24.6813 39.3126C24.4968 38.7128 24.0201 38.436 23.1588 38.436C22.5591 38.436 22.2669 38.513 22.0208 38.7436Z" fill="white"/>
<path d="M25.6809 40.5891V42.742H26.0654C26.4345 42.742 26.4498 42.7113 26.4498 41.6194C26.4498 40.4199 26.5882 40.1277 27.1572 40.1277C27.5879 40.1277 27.6802 40.3891 27.6802 41.6809C27.6802 42.7114 27.6955 42.742 28.0646 42.742C28.4337 42.742 28.449 42.7113 28.449 41.6041C28.449 40.9735 28.3875 40.2815 28.3106 40.0816C28.1107 39.5741 27.3418 39.3896 26.8343 39.7278L26.4498 39.9739V39.205C26.4498 38.4822 26.419 38.436 26.0654 38.436H25.6809V40.5891Z" fill="white"/>
<path d="M36.6306 38.7743C36.6612 39.005 36.7997 39.1434 37.0303 39.1742C37.3071 39.2204 37.3687 39.1589 37.3687 38.8359C37.3687 38.513 37.2918 38.436 36.9689 38.436C36.6459 38.436 36.5844 38.4975 36.6306 38.7743Z" fill="white"/>
<path d="M38.2915 38.8205C38.2915 39.1281 38.3684 39.205 38.6759 39.205C38.9835 39.205 39.0604 39.1281 39.0604 38.8205C39.0604 38.513 38.9835 38.436 38.6759 38.436C38.3684 38.436 38.2915 38.513 38.2915 38.8205Z" fill="white"/>
<path d="M41.5518 40.543C41.5979 42.6191 41.6133 42.6652 41.9516 42.7114C42.2745 42.7575 42.29 42.7267 42.29 41.358C42.29 40.5891 42.3514 39.9893 42.4129 40.0355C42.4898 40.0816 42.9051 40.6967 43.3356 41.4195C43.997 42.5114 44.2122 42.742 44.5198 42.742H44.9043V40.5891V38.436H44.5198C44.1354 38.436 44.1354 38.4514 44.1354 39.8509V41.2811L43.5971 40.4352C43.305 39.9739 42.9204 39.328 42.7513 39.005C42.4898 38.5436 42.3514 38.436 41.9823 38.436H41.5056L41.5518 40.543Z" fill="white"/>
<path d="M45.8578 38.7743C45.8885 39.005 46.0269 39.1434 46.2576 39.1742C46.5344 39.2204 46.596 39.1589 46.596 38.8359C46.596 38.513 46.519 38.436 46.1961 38.436C45.8731 38.436 45.8116 38.4975 45.8578 38.7743Z" fill="white"/>
<path d="M50.902 40.6044C50.902 42.7575 50.902 42.7575 51.2557 42.7114C51.5632 42.6652 51.594 42.5729 51.6401 41.5886C51.6863 40.466 51.84 40.1277 52.3014 40.1277C52.7166 40.1277 52.9012 40.6044 52.9012 41.7425C52.9012 42.7114 52.9166 42.7575 53.2549 42.7114C53.5779 42.6652 53.5932 42.5883 53.5932 41.3887C53.5932 40.2045 53.5625 40.0816 53.2088 39.7893C52.855 39.4972 52.5321 39.4818 51.9478 39.7432C51.7016 39.8355 51.6709 39.7586 51.6709 39.1434C51.6709 38.4975 51.6401 38.436 51.2864 38.436H50.902V40.6044Z" fill="white"/>
<path d="M54.4699 38.7743C54.5006 39.005 54.639 39.1434 54.8697 39.1742C55.1465 39.2204 55.2081 39.1589 55.2081 38.8359C55.2081 38.513 55.1311 38.436 54.8082 38.436C54.4852 38.436 54.4238 38.4975 54.4699 38.7743Z" fill="white"/>
<path d="M34.1084 39.7278C33.8624 39.8509 33.6779 39.897 33.6779 39.8048C33.6779 39.7278 33.5086 39.6664 33.2933 39.6664H32.8935L32.9397 41.1581C32.9858 42.5575 33.0165 42.6652 33.3088 42.7113C33.6163 42.7575 33.6471 42.6652 33.7085 41.5733C33.7855 40.3584 33.9392 40.0969 34.5236 40.1584C34.8005 40.2045 34.8466 40.343 34.9081 41.4349C34.985 42.5729 35.0158 42.6652 35.3388 42.7113C35.6617 42.7575 35.677 42.7267 35.677 41.3734C35.677 40.1123 35.6462 39.9739 35.3388 39.7586C34.9081 39.451 34.6467 39.451 34.1084 39.7278Z" fill="white"/>
<path d="M47.7186 39.8815C47.3495 40.2044 47.3187 40.2967 47.4418 40.6812C47.5648 41.0195 47.7647 41.1887 48.3337 41.3733C49.3487 41.7116 49.5179 41.9115 49.0104 42.1421C48.6566 42.296 48.549 42.2806 48.3183 42.0807C48.0107 41.7885 47.3648 41.7269 47.3648 41.9731C47.3648 42.0499 47.5032 42.2652 47.6724 42.4344C48.1338 42.8958 49.2564 42.865 49.7486 42.3575C50.4098 41.7116 50.133 41.1272 48.9642 40.7427C48.1491 40.4812 47.8723 40.1276 48.5029 40.1276C48.7336 40.1276 49.0412 40.2044 49.1949 40.3122C49.3487 40.4044 49.6101 40.4351 49.7639 40.3736C50.0407 40.266 50.0254 40.2352 49.6255 39.8815C49.0565 39.3894 48.2875 39.3894 47.7186 39.8815Z" fill="white"/>
<path d="M57.0842 39.7586C56.8997 39.8816 56.7459 39.9124 56.7459 39.8354C56.7459 39.7432 56.5767 39.6663 56.3614 39.6663H55.9616L56.0077 41.158C56.0539 42.5882 56.0692 42.6652 56.4075 42.7113C56.7304 42.7575 56.7459 42.7113 56.7459 41.8347C56.7459 40.6197 56.9458 40.0969 57.4072 40.1584C57.7148 40.2045 57.7454 40.2968 57.8224 41.4348C57.8993 42.5729 57.93 42.6652 58.2529 42.7113C58.5759 42.7575 58.5913 42.7113 58.5913 41.8347C58.5913 40.6197 58.7912 40.0969 59.2526 40.1584C59.5602 40.2045 59.5909 40.2968 59.6678 41.4348C59.7448 42.5729 59.7754 42.6652 60.0984 42.7113C60.4213 42.7575 60.4368 42.7267 60.4368 41.3887C60.4368 40.2661 60.3907 39.9738 60.16 39.7739C59.8062 39.451 59.3757 39.4357 58.9296 39.7586C58.622 39.9738 58.5606 39.9738 58.3452 39.7586C58.0377 39.451 57.5302 39.451 57.0842 39.7586Z" fill="white"/>
<path d="M66.0654 39.7431C65.927 39.8815 65.8194 39.9276 65.8194 39.8354C65.8194 39.7431 65.6502 39.6663 65.4348 39.6663H65.0504V41.2041V42.7419H65.4348C65.8039 42.7419 65.8194 42.6958 65.8194 41.8039C65.8194 40.6813 66.0039 40.2814 66.5268 40.2814C66.8497 40.2814 66.9112 40.2199 66.8651 39.9431C66.8036 39.5124 66.4037 39.4201 66.0654 39.7431Z" fill="white"/>
<path d="M67.8186 39.7125C67.2803 39.9893 67.2188 40.4352 67.7263 40.4352C67.9415 40.4352 68.1261 40.3584 68.1261 40.2661C68.1261 40.1739 68.3106 40.1277 68.5567 40.1584C69.2026 40.2353 69.0642 40.6198 68.2953 40.8504C67.434 41.0966 67.2033 41.2965 67.2033 41.8193C67.2033 42.5883 68.0184 42.9727 68.7874 42.5729C69.0334 42.4345 69.1257 42.4345 69.1719 42.5729C69.2026 42.6652 69.4025 42.742 69.6179 42.742C69.91 42.742 69.987 42.6806 69.91 42.496C69.8639 42.3576 69.8178 41.7732 69.8178 41.1889C69.8178 40.3276 69.7563 40.0661 69.5101 39.8201C69.1565 39.4664 68.4029 39.4202 67.8186 39.7125ZM69.0488 41.4964C69.0488 42.1116 68.1107 42.3576 68.0031 41.7732C67.9723 41.6194 68.0799 41.4502 68.3106 41.3734C68.8642 41.1427 69.0488 41.1734 69.0488 41.4964Z" fill="white"/>
<path d="M29.3717 40.9581C29.3717 41.9423 29.4333 42.3114 29.6179 42.4959C29.9254 42.8035 30.5867 42.8035 31.0326 42.4959C31.3403 42.2806 31.371 42.2806 31.371 42.5112C31.371 42.6804 31.4787 42.7419 31.7247 42.7112C32.0476 42.6651 32.0631 42.5882 32.1092 41.158L32.1554 39.6663H31.7555C31.3864 39.6663 31.371 39.7124 31.371 40.4967C31.371 41.7116 31.171 42.1576 30.6329 42.096C30.2176 42.0499 30.2176 42.0345 30.1715 40.8503C30.1254 39.7124 30.1099 39.6663 29.7563 39.6663C29.3717 39.6663 29.3717 39.6816 29.3717 40.9581Z" fill="white"/>
<path d="M36.5998 41.4348C36.5998 43.0957 36.5844 43.2033 36.2923 43.2033C36.0616 43.2033 35.9847 43.311 35.9847 43.5878C35.9847 43.9108 36.0616 43.9723 36.4307 43.9723C37.2611 43.9723 37.3687 43.6954 37.3687 41.5732V39.6663H36.9843H36.5998V41.4348Z" fill="white"/>
<path d="M38.2915 41.2041V42.7419H38.6759H39.0604V41.2041V39.6663H38.6759H38.2915V41.2041Z" fill="white"/>
<path d="M45.8578 41.158C45.9039 42.5882 45.9193 42.6651 46.2576 42.7112C46.596 42.7574 46.596 42.7266 46.596 41.2194V39.6663H46.2114H45.8116L45.8578 41.158Z" fill="white"/>
<path d="M54.4699 41.158C54.516 42.5882 54.5314 42.6651 54.8697 42.7112C55.2081 42.7574 55.2081 42.7266 55.2081 41.2194V39.6663H54.8235H54.4238L54.4699 41.158Z" fill="white"/>
<path d="M61.3595 40.6505C61.3595 42.4344 61.8517 43.0342 62.9589 42.6035C63.2664 42.4959 63.451 42.4806 63.4818 42.5882C63.5126 42.6651 63.6663 42.7419 63.8355 42.7419C64.0969 42.7419 64.1277 42.619 64.1277 41.2041C64.1277 39.6663 64.1277 39.6663 63.7432 39.6663C63.3895 39.6663 63.3742 39.7124 63.328 40.8503L63.2819 42.0499L62.8051 42.096C62.2361 42.1576 62.1285 41.9269 62.1285 40.5428C62.1285 39.7124 62.113 39.6663 61.7439 39.6663C61.3749 39.6663 61.3595 39.6969 61.3595 40.6505Z" fill="white"/>
</svg>
