<svg width="16" height="18" viewBox="0 0 16 18" fill="none" xmlns="http://www.w3.org/2000/svg">
<path d="M10.7499 16.2233C10.7865 16.4983 10.6949 16.7917 10.484 16.9842C10.3992 17.0691 10.2985 17.1366 10.1876 17.1826C10.0767 17.2286 9.95785 17.2522 9.83779 17.2522C9.71774 17.2522 9.59886 17.2286 9.48797 17.1826C9.37708 17.1366 9.27635 17.0691 9.19154 16.9842L5.51571 13.3083C5.41573 13.2106 5.33972 13.0911 5.2936 12.9591C5.24748 12.8271 5.23252 12.6862 5.24988 12.5475V7.85417L0.859043 2.235C0.710184 2.0439 0.643015 1.80165 0.672215 1.56119C0.701415 1.32072 0.824608 1.10158 1.01488 0.951667C1.18904 0.823333 1.38154 0.75 1.58321 0.75H14.4165C14.6182 0.75 14.8107 0.823333 14.9849 0.951667C15.1751 1.10158 15.2983 1.32072 15.3275 1.56119C15.3567 1.80165 15.2896 2.0439 15.1407 2.235L10.7499 7.85417V16.2233ZM3.45321 2.58333L7.08321 7.22167V12.2817L8.91654 14.115V7.2125L12.5465 2.58333H3.45321Z" fill="white"/>
</svg>
