<svg width="16" height="18" viewBox="0 0 16 18" fill="none" xmlns="http://www.w3.org/2000/svg">
<path d="M10.7504 16.2233C10.787 16.4983 10.6954 16.7917 10.4845 16.9842C10.3997 17.0691 10.299 17.1366 10.1881 17.1826C10.0772 17.2286 9.95834 17.2522 9.83828 17.2522C9.71823 17.2522 9.59935 17.2286 9.48846 17.1826C9.37757 17.1366 9.27684 17.0691 9.19203 16.9842L5.5162 13.3083C5.41622 13.2106 5.3402 13.0911 5.29409 12.9591C5.24797 12.8271 5.23301 12.6862 5.25036 12.5475V7.85417L0.859531 2.235C0.710672 2.0439 0.643504 1.80165 0.672703 1.56119C0.701903 1.32072 0.825096 1.10158 1.01536 0.951667C1.18953 0.823333 1.38203 0.75 1.5837 0.75H14.417C14.6187 0.75 14.8112 0.823333 14.9854 0.951667C15.1756 1.10158 15.2988 1.32072 15.328 1.56119C15.3572 1.80165 15.2901 2.0439 15.1412 2.235L10.7504 7.85417V16.2233ZM3.4537 2.58333L7.0837 7.22167V12.2817L8.91703 14.115V7.2125L12.547 2.58333H3.4537Z" fill="#9EFFCA"/>
</svg>
