<svg width="40" height="58" viewBox="0 0 40 58" fill="none" xmlns="http://www.w3.org/2000/svg">
<path d="M22.6 36.2V29H39.8V52.04L30.52 57.4H9.48L0.2 52.04V5.96L9.48 0.599997H30.52L39.8 5.96V15H31.8V7.8H8.2V50.2H31.8V36.2H22.6Z" fill="white"/>
<path d="M22.6 36.2H21.6V37.2H22.6V36.2ZM22.6 29V28H21.6V29H22.6ZM39.8 29H40.8V28H39.8V29ZM39.8 52.04L40.3002 52.9059L40.8 52.6172V52.04H39.8ZM30.52 57.4V58.4H30.788L31.0202 58.2659L30.52 57.4ZM9.48 57.4L8.97985 58.2659L9.21196 58.4H9.48V57.4ZM0.2 52.04H-0.8V52.6172L-0.300153 52.9059L0.2 52.04ZM0.2 5.96L-0.300153 5.09406L-0.8 5.38277V5.96H0.2ZM9.48 0.599997V-0.400003H9.21196L8.97985 -0.26594L9.48 0.599997ZM30.52 0.599997L31.0202 -0.26594L30.788 -0.400003H30.52V0.599997ZM39.8 5.96H40.8V5.38277L40.3002 5.09406L39.8 5.96ZM39.8 15V16H40.8V15H39.8ZM31.8 15H30.8V16H31.8V15ZM31.8 7.8H32.8V6.8H31.8V7.8ZM8.2 7.8V6.8H7.2V7.8H8.2ZM8.2 50.2H7.2V51.2H8.2V50.2ZM31.8 50.2V51.2H32.8V50.2H31.8ZM31.8 36.2H32.8V35.2H31.8V36.2ZM23.6 36.2V29H21.6V36.2H23.6ZM22.6 30H39.8V28H22.6V30ZM38.8 29V52.04H40.8V29H38.8ZM39.2998 51.1741L30.0198 56.5341L31.0202 58.2659L40.3002 52.9059L39.2998 51.1741ZM30.52 56.4H9.48V58.4H30.52V56.4ZM9.98015 56.5341L0.700153 51.1741L-0.300153 52.9059L8.97985 58.2659L9.98015 56.5341ZM1.2 52.04V5.96H-0.8V52.04H1.2ZM0.700154 6.82594L9.98015 1.46593L8.97985 -0.26594L-0.300153 5.09406L0.700154 6.82594ZM9.48 1.6H30.52V-0.400003H9.48V1.6ZM30.0198 1.46593L39.2998 6.82594L40.3002 5.09406L31.0202 -0.26594L30.0198 1.46593ZM38.8 5.96V15H40.8V5.96H38.8ZM39.8 14H31.8V16H39.8V14ZM32.8 15V7.8H30.8V15H32.8ZM31.8 6.8H8.2V8.8H31.8V6.8ZM7.2 7.8V50.2H9.2V7.8H7.2ZM8.2 51.2H31.8V49.2H8.2V51.2ZM32.8 50.2V36.2H30.8V50.2H32.8ZM31.8 35.2H22.6V37.2H31.8V35.2Z" fill="#383448"/>
</svg>
