<svg width="21" height="20" viewBox="0 0 21 20" fill="none" xmlns="http://www.w3.org/2000/svg">
<path d="M5.83028 0H14.2303C17.4303 0 20.0303 2.6 20.0303 5.8V14.2C20.0303 15.7383 19.4192 17.2135 18.3315 18.3012C17.2438 19.3889 15.7685 20 14.2303 20H5.83028C2.63027 20 0.0302734 17.4 0.0302734 14.2V5.8C0.0302734 4.26175 0.641343 2.78649 1.72905 1.69878C2.81677 0.61107 4.29202 0 5.83028 0ZM5.63027 2C4.6755 2 3.75982 2.37929 3.08469 3.05442C2.40956 3.72955 2.03027 4.64522 2.03027 5.6V14.4C2.03027 16.39 3.64027 18 5.63027 18H14.4303C15.3851 18 16.3007 17.6207 16.9759 16.9456C17.651 16.2705 18.0303 15.3548 18.0303 14.4V5.6C18.0303 3.61 16.4203 2 14.4303 2H5.63027ZM15.2803 3.5C15.6118 3.5 15.9297 3.6317 16.1642 3.86612C16.3986 4.10054 16.5303 4.41848 16.5303 4.75C16.5303 5.08152 16.3986 5.39946 16.1642 5.63388C15.9297 5.86831 15.6118 6 15.2803 6C14.9488 6 14.6308 5.86831 14.3964 5.63388C14.162 5.39946 14.0303 5.08152 14.0303 4.75C14.0303 4.41848 14.162 4.10054 14.3964 3.86612C14.6308 3.6317 14.9488 3.5 15.2803 3.5ZM10.0303 5C11.3564 5 12.6281 5.52679 13.5658 6.46447C14.5035 7.40215 15.0303 8.67392 15.0303 10C15.0303 11.3261 14.5035 12.5979 13.5658 13.5355C12.6281 14.4732 11.3564 15 10.0303 15C8.70419 15 7.43242 14.4732 6.49474 13.5355C5.55706 12.5979 5.03027 11.3261 5.03027 10C5.03027 8.67392 5.55706 7.40215 6.49474 6.46447C7.43242 5.52679 8.70419 5 10.0303 5ZM10.0303 7C9.23463 7 8.47156 7.31607 7.90895 7.87868C7.34635 8.44129 7.03028 9.20435 7.03028 10C7.03028 10.7957 7.34635 11.5587 7.90895 12.1213C8.47156 12.6839 9.23463 13 10.0303 13C10.8259 13 11.589 12.6839 12.1516 12.1213C12.7142 11.5587 13.0303 10.7957 13.0303 10C13.0303 9.20435 12.7142 8.44129 12.1516 7.87868C11.589 7.31607 10.8259 7 10.0303 7Z" fill="#9EFFCA"/>
</svg>
