<svg width="21" height="21" viewBox="0 0 21 21" fill="none" xmlns="http://www.w3.org/2000/svg">
<path d="M5.98994 0.516113H14.3899C17.5899 0.516113 20.1899 3.11611 20.1899 6.31611V14.7161C20.1899 16.2544 19.5789 17.7296 18.4912 18.8173C17.4035 19.905 15.9282 20.5161 14.3899 20.5161H5.98994C2.78994 20.5161 0.189941 17.9161 0.189941 14.7161V6.31611C0.189941 4.77786 0.801011 3.30261 1.88872 2.21489C2.97643 1.12718 4.45169 0.516113 5.98994 0.516113ZM5.78994 2.51611C4.83516 2.51611 3.91949 2.8954 3.24436 3.57053C2.56923 4.24566 2.18994 5.16133 2.18994 6.11611V14.9161C2.18994 16.9061 3.79994 18.5161 5.78994 18.5161H14.5899C15.5447 18.5161 16.4604 18.1368 17.1355 17.4617C17.8107 16.7866 18.1899 15.8709 18.1899 14.9161V6.11611C18.1899 4.12611 16.5799 2.51611 14.5899 2.51611H5.78994ZM15.4399 4.01611C15.7715 4.01611 16.0894 4.14781 16.3238 4.38223C16.5583 4.61665 16.6899 4.93459 16.6899 5.26611C16.6899 5.59764 16.5583 5.91558 16.3238 6.15C16.0894 6.38442 15.7715 6.51611 15.4399 6.51611C15.1084 6.51611 14.7905 6.38442 14.5561 6.15C14.3216 5.91558 14.1899 5.59764 14.1899 5.26611C14.1899 4.93459 14.3216 4.61665 14.5561 4.38223C14.7905 4.14781 15.1084 4.01611 15.4399 4.01611ZM10.1899 5.51611C11.516 5.51611 12.7878 6.0429 13.7255 6.98058C14.6632 7.91826 15.1899 9.19003 15.1899 10.5161C15.1899 11.8422 14.6632 13.114 13.7255 14.0517C12.7878 14.9893 11.516 15.5161 10.1899 15.5161C8.86386 15.5161 7.59209 14.9893 6.65441 14.0517C5.71673 13.114 5.18994 11.8422 5.18994 10.5161C5.18994 9.19003 5.71673 7.91826 6.65441 6.98058C7.59209 6.0429 8.86386 5.51611 10.1899 5.51611ZM10.1899 7.51612C9.39429 7.51612 8.63123 7.83219 8.06862 8.39479C7.50601 8.9574 7.18994 9.72047 7.18994 10.5161C7.18994 11.3118 7.50601 12.0748 8.06862 12.6374C8.63123 13.2 9.39429 13.5161 10.1899 13.5161C10.9856 13.5161 11.7487 13.2 12.3113 12.6374C12.8739 12.0748 13.1899 11.3118 13.1899 10.5161C13.1899 9.72047 12.8739 8.9574 12.3113 8.39479C11.7487 7.83219 10.9856 7.51612 10.1899 7.51612Z" fill="#9EFFCA"/>
</svg>
