<svg width="25" height="25" viewBox="0 0 25 25" fill="none" xmlns="http://www.w3.org/2000/svg">
<path d="M5.12989 22.4457C2.53611 17.1708 0.992988 13.9852 0.992988 13.9061C0.992988 13.7771 1.15145 13.795 2.70986 14.0983C5.45069 14.6324 6.91506 14.7831 9.35608 14.784C12.5857 14.7849 15.2156 14.2772 17.2589 13.2571C18.3399 12.7174 18.99 12.2389 19.5224 11.5908C20.1782 10.7921 20.3889 10.2419 20.3965 9.316C20.4031 8.43533 20.2835 7.97095 19.7701 6.89333C19.5669 6.4675 19.3885 5.97872 19.3714 5.80722C19.3449 5.53122 19.3676 5.49167 19.5727 5.46811C20.0206 5.41545 22.2319 7.54606 23.0462 8.81483C24.4499 11.0029 24.5638 13.37 23.3756 15.659C22.6457 17.0653 21.8391 18.0383 20.4885 19.1442C18.244 20.981 15.635 22.2601 12.0324 23.2906C10.0974 23.8445 6.96829 24.5161 6.32385 24.5161C6.18727 24.5161 5.9309 24.0715 5.1318 22.4448L5.12989 22.4457V22.4457ZM5.8522 13.939C3.33242 13.615 1.21801 13.3333 1.15252 13.3126C1.04057 13.2768 0.640064 11.9506 0.414148 10.8711C0.357222 10.5979 0.273651 9.8745 0.228143 9.26233C0.0249526 6.53067 0.623832 4.642 2.2287 2.94372C4.94579 0.0708349 10.7635 -0.278665 17.3272 2.03667C18.4793 2.44361 18.9367 2.72617 18.7252 2.90228C18.5686 3.03228 17.5075 3.03039 15.6739 2.89661C12.8078 2.6875 10.6259 3.08311 9.50134 4.0175C7.78917 5.43984 8.05023 8.55772 10.2587 13.0554C10.4979 13.5424 10.7389 14.019 10.794 14.1159C10.9222 14.3392 10.8291 14.5465 10.6061 14.5361C10.5111 14.5316 8.37181 14.2632 5.85214 13.9391L5.8522 13.939ZM14.3054 11.4919C12.2943 11.1331 10.4863 9.89528 9.90268 8.47961C9.62269 7.79956 9.63596 6.91222 9.93492 6.38106C10.2054 5.90061 10.9039 5.34495 11.5293 5.11222C12.5705 4.72511 14.3936 4.87956 15.7223 5.46834C16.9835 6.02695 18.1016 7.00934 18.5172 7.923C19.0507 9.09572 18.6064 10.4041 17.4638 11.0286C16.7064 11.4421 15.2344 11.6578 14.3043 11.492L14.3054 11.4919Z" fill="#9EFFCA"/>
</svg>
