<svg width="25" height="24" viewBox="0 0 25 24" fill="none" xmlns="http://www.w3.org/2000/svg">
<path d="M4.97023 21.9296C2.37645 16.6547 0.83332 13.4691 0.83332 13.39C0.83332 13.261 0.991786 13.2789 2.55019 13.5822C5.29102 14.1163 6.75539 14.267 9.19641 14.2679C12.426 14.2688 15.0559 13.7611 17.0993 12.741C18.1802 12.2013 18.8303 11.7228 19.3627 11.0747C20.0186 10.2759 20.2292 9.72583 20.2368 8.79989C20.2434 7.91922 20.1238 7.45483 19.6104 6.37722C19.4072 5.95139 19.2289 5.46261 19.2118 5.29111C19.1852 5.01511 19.208 4.97556 19.413 4.952C19.861 4.89933 22.0722 7.02994 22.8866 8.29872C24.2902 10.4868 24.4041 12.8539 23.2159 15.1429C22.486 16.5492 21.6794 17.5222 20.3289 18.6281C18.0843 20.4649 15.4754 21.744 11.8728 22.7745C9.93769 23.3284 6.80862 24 6.16418 24C6.0276 24 5.77123 23.5554 4.97213 21.9287L4.97023 21.9296V21.9296ZM5.69253 13.4229C3.17275 13.0989 1.05834 12.8172 0.99285 12.7965C0.880899 12.7607 0.480396 11.4345 0.25448 10.355C0.197554 10.0818 0.113983 9.35839 0.0684747 8.74622C-0.134715 6.01456 0.464164 4.12589 2.06903 2.42761C4.78612 -0.445278 10.6038 -0.794778 17.1675 1.52056C18.3196 1.9275 18.7771 2.21005 18.5655 2.38617C18.4089 2.51617 17.3479 2.51428 15.5143 2.3805C12.6481 2.17139 10.4663 2.567 9.34167 3.50139C7.6295 4.92372 7.89057 8.04161 10.099 12.5393C10.3382 13.0263 10.5793 13.5029 10.6343 13.5998C10.7625 13.8231 10.6695 14.0304 10.4464 14.02C10.3514 14.0155 8.21214 13.7471 5.69247 13.423L5.69253 13.4229ZM14.1457 10.9758C12.1346 10.6169 10.3267 9.37917 9.74301 7.9635C9.46302 7.28344 9.47629 6.39611 9.77525 5.86494C10.0457 5.3845 10.7442 4.82883 11.3696 4.59611C12.4108 4.209 14.2339 4.36344 15.5626 4.95222C16.8239 5.51083 17.9419 6.49322 18.3575 7.40689C18.891 8.57961 18.4467 9.888 17.3041 10.5125C16.5467 10.926 15.0748 11.1417 14.1447 10.9759L14.1457 10.9758Z" fill="#9EFFCA"/>
</svg>
