<svg width="19" height="18" viewBox="0 0 19 18" fill="none" xmlns="http://www.w3.org/2000/svg">
<path d="M16.0303 0C16.5607 0 17.0694 0.210714 17.4445 0.585786C17.8196 0.960859 18.0303 1.46957 18.0303 2V16C18.0303 16.5304 17.8196 17.0391 17.4445 17.4142C17.0694 17.7893 16.5607 18 16.0303 18H2.03027C1.49984 18 0.991133 17.7893 0.61606 17.4142C0.240987 17.0391 0.0302734 16.5304 0.0302734 16V2C0.0302734 1.46957 0.240987 0.960859 0.61606 0.585786C0.991133 0.210714 1.49984 0 2.03027 0H16.0303ZM15.5303 15.5V10.2C15.5303 9.33539 15.1868 8.5062 14.5754 7.89483C13.9641 7.28346 13.1349 6.94 12.2703 6.94C11.4203 6.94 10.4303 7.46 9.95027 8.24V7.13H7.16027V15.5H9.95027V10.57C9.95027 9.8 10.5703 9.17 11.3403 9.17C11.7116 9.17 12.0677 9.3175 12.3302 9.58005C12.5928 9.8426 12.7403 10.1987 12.7403 10.57V15.5H15.5303ZM3.91027 5.56C4.35584 5.56 4.78315 5.383 5.09821 5.06794C5.41327 4.75288 5.59027 4.32556 5.59027 3.88C5.59027 2.95 4.84027 2.19 3.91027 2.19C3.46206 2.19 3.0322 2.36805 2.71526 2.68499C2.39833 3.00193 2.22027 3.43178 2.22027 3.88C2.22027 4.81 2.98027 5.56 3.91027 5.56ZM5.30027 15.5V7.13H2.53027V15.5H5.30027Z" fill="#9EFFCA"/>
</svg>
