<svg width="19" height="19" viewBox="0 0 19 19" fill="none" xmlns="http://www.w3.org/2000/svg">
<path d="M16.1899 0.516113C16.7204 0.516113 17.2291 0.726827 17.6042 1.1019C17.9792 1.47697 18.1899 1.98568 18.1899 2.51611V16.5161C18.1899 17.0465 17.9792 17.5553 17.6042 17.9303C17.2291 18.3054 16.7204 18.5161 16.1899 18.5161H2.18994C1.65951 18.5161 1.1508 18.3054 0.775728 17.9303C0.400655 17.5553 0.189941 17.0465 0.189941 16.5161V2.51611C0.189941 1.98568 0.400655 1.47697 0.775728 1.1019C1.1508 0.726827 1.65951 0.516113 2.18994 0.516113H16.1899ZM15.6899 16.0161V10.7161C15.6899 9.85151 15.3465 9.02231 14.7351 8.41094C14.1237 7.79958 13.2945 7.45611 12.4299 7.45611C11.5799 7.45611 10.5899 7.97611 10.1099 8.75611V7.64611H7.31994V16.0161H10.1099V11.0861C10.1099 10.3161 10.7299 9.68611 11.4999 9.68611C11.8712 9.68611 12.2273 9.83361 12.4899 10.0962C12.7524 10.3587 12.8999 10.7148 12.8999 11.0861V16.0161H15.6899ZM4.06994 6.07611C4.51551 6.07611 4.94282 5.89911 5.25788 5.58405C5.57294 5.26899 5.74994 4.84168 5.74994 4.39611C5.74994 3.46611 4.99994 2.70611 4.06994 2.70611C3.62173 2.70611 3.19187 2.88417 2.87493 3.2011C2.55799 3.51804 2.37994 3.9479 2.37994 4.39611C2.37994 5.32611 3.13994 6.07611 4.06994 6.07611ZM5.45994 16.0161V7.64611H2.68994V16.0161H5.45994Z" fill="#9EFFCA"/>
</svg>
