<svg width="46" height="54" viewBox="0 0 46 54" fill="none" xmlns="http://www.w3.org/2000/svg">
<path d="M22.4054 15.7838H34.2973C37.0587 15.7838 39.2973 13.5452 39.2973 10.7838V7C39.2973 4.23858 37.0587 2 34.2973 2H22C10.9543 2 2 10.9543 2 22V32C2 43.0457 10.9543 52 22 52H33.8919C39.4147 52 43.8919 47.5229 43.8919 42V30.5135C43.8919 27.7521 41.6533 25.5135 38.8919 25.5135H32.6757C29.9143 25.5135 27.6757 27.7521 27.6757 30.5135V33.7568C27.6757 36.5182 25.4371 38.7568 22.6757 38.7568H22.4054C19.644 38.7568 17.4054 36.5182 17.4054 33.7568V20.7838C17.4054 18.0224 19.644 15.7838 22.4054 15.7838Z" stroke="white" stroke-width="4"/>
</svg>
