<svg width="84" height="70" viewBox="0 0 84 70" fill="none" xmlns="http://www.w3.org/2000/svg">
<path d="M50.0342 6.44444L42.3419 2L2 24.906L6.05063 27.3165V39.4683C5.10286 40.088 4.53165 41.144 4.53165 42.2764V47.9531C4.53165 48.3559 4.69168 48.7423 4.97655 49.0272C5.56975 49.6204 6.53152 49.6204 7.12472 49.0272L7.15286 48.999C7.42142 48.7305 7.58269 48.3731 7.60639 47.994L7.96207 42.303C8.03256 41.1752 7.4972 40.0952 6.55696 39.4683V27.8228L42.3419 48.4957L82 24.906L58.5812 11.2308L34.9915 24.906L42.8547 29.5214L58.9231 19.9487L66.9573 24.906L42.3419 39.265L17.5556 25.0769L50.0342 6.44444Z" fill="white"/>
<path d="M21.2405 41.4937L13.7949 37.2801V51.2308L42.3419 68.1538L71.0598 51.2308V36.4304L63.2658 41.4937L63.1966 47.1282L42.3419 59.2649L21.3162 46.9573L21.2405 41.4937Z" fill="white"/>
<path d="M50.0342 6.44444L42.3419 2L2 24.906L6.05063 27.3165V39.4683C5.10286 40.088 4.53165 41.144 4.53165 42.2764V47.9531C4.53165 48.3559 4.69168 48.7423 4.97655 49.0272C5.56975 49.6204 6.53152 49.6204 7.12472 49.0272L7.15286 48.999C7.42142 48.7305 7.58269 48.3731 7.60639 47.994L7.96207 42.303C8.03256 41.1752 7.4972 40.0952 6.55696 39.4683V27.8228L42.3419 48.4957L82 24.906L58.5812 11.2308L34.9915 24.906L42.8547 29.5214L58.9231 19.9487L66.9573 24.906L42.3419 39.265L17.5556 25.0769L50.0342 6.44444Z" stroke="white" stroke-width="2"/>
<path d="M21.2405 41.4937L13.7949 37.2801V51.2308L42.3419 68.1538L71.0598 51.2308V36.4304L63.2658 41.4937L63.1966 47.1282L42.3419 59.2649L21.3162 46.9573L21.2405 41.4937Z" stroke="white" stroke-width="2"/>
</svg>
