<svg width="67" height="56" viewBox="0 0 67 56" fill="none" xmlns="http://www.w3.org/2000/svg">
<path d="M40.0278 4.61111L33.7778 1L1 19.6111L4.29114 21.5696V31.443C3.52108 31.9465 3.05696 32.8045 3.05696 33.7246V38.3369C3.05696 38.6642 3.18699 38.9781 3.41844 39.2096C3.90042 39.6916 4.68186 39.6916 5.16383 39.2096L5.1867 39.1867C5.40491 38.9685 5.53594 38.6781 5.55519 38.3702L5.84418 33.7462C5.90146 32.8299 5.46648 31.9523 4.70253 31.443V21.981L33.7778 38.7778L66 19.6111L46.9722 8.5L27.8056 19.6111L34.1944 23.3611L47.25 15.5833L53.7778 19.6111L33.7778 31.2778L13.6389 19.75L40.0278 4.61111Z" fill="white"/>
<path d="M16.6329 33.0886L10.5833 29.6651V41L33.7778 54.75L57.1111 41V28.9747L50.7785 33.0886L50.7222 37.6667L33.7778 47.5278L16.6944 37.5278L16.6329 33.0886Z" fill="white"/>
<path d="M40.0278 4.61111L33.7778 1L1 19.6111L4.29114 21.5696V31.443C3.52108 31.9465 3.05696 32.8045 3.05696 33.7246V38.3369C3.05696 38.6642 3.18699 38.9781 3.41844 39.2096C3.90042 39.6916 4.68186 39.6916 5.16383 39.2096L5.1867 39.1867C5.40491 38.9685 5.53594 38.6781 5.55519 38.3702L5.84418 33.7462C5.90146 32.8299 5.46648 31.9523 4.70253 31.443V21.981L33.7778 38.7778L66 19.6111L46.9722 8.5L27.8056 19.6111L34.1944 23.3611L47.25 15.5833L53.7778 19.6111L33.7778 31.2778L13.6389 19.75L40.0278 4.61111Z" stroke="white"/>
<path d="M16.6329 33.0886L10.5833 29.6651V41L33.7778 54.75L57.1111 41V28.9747L50.7785 33.0886L50.7222 37.6667L33.7778 47.5278L16.6944 37.5278L16.6329 33.0886Z" stroke="white"/>
</svg>
