<svg width="54" height="50" viewBox="0 0 54 50" fill="none" xmlns="http://www.w3.org/2000/svg">
<g clip-path="url(#clip0_2145_1579)">
<path d="M9.8389 0.00349724C9.79225 0.0221492 9.5591 0.087431 9.32595 0.152713C5.52095 1.19722 2.76981 3.39815 1.1471 6.6809C0.540905 7.92125 0 9.5253 0 10.1128C0 11.2413 1.45485 11.8568 2.21958 11.0361C2.33149 10.9242 2.59262 10.2993 2.79779 9.6652C3.98219 6.08405 6.19245 3.87377 9.60575 2.85724C10.9301 2.45622 11.2751 2.18577 11.3497 1.44902C11.415 0.74025 10.9487 0.162039 10.212 0.0314752C10.0627 0.00349725 9.89485 -0.00582874 9.8389 0.00349724Z" fill="#9EFFCA"/>
<path d="M15.22 2.35365C11.1445 2.98782 7.85241 4.7411 5.65151 7.46426C3.89822 9.63721 2.92832 11.9221 2.33145 15.2981C2.10763 16.5664 2.09831 16.8649 2.2755 17.2006C2.61123 17.8348 3.26405 18.1052 3.95417 17.8721C4.48575 17.7042 4.7189 17.2566 4.88677 16.1374C5.91261 9.34811 9.68031 5.69236 16.5069 4.85301C17.225 4.76908 17.5328 4.58256 17.8032 4.09761C17.9991 3.71524 17.8965 2.92254 17.5981 2.63343C17.1131 2.16713 16.7494 2.1205 15.22 2.35365Z" fill="#9EFFCA"/>
<path d="M27.9779 4.11623C27.9779 5.49648 27.9499 5.94413 27.866 5.97208C27.8007 5.99073 27.3717 6.05603 26.9054 6.11198C26.4485 6.17728 25.6558 6.31713 25.1522 6.43838C24.0983 6.69018 24.2475 6.77413 23.7812 5.59903C23.6227 5.19803 23.4175 4.69444 23.3243 4.48927C23.231 4.2841 23.1004 3.95769 23.0258 3.76184C22.9606 3.57532 22.858 3.41678 22.7927 3.41678C22.6994 3.41678 19.1183 4.89028 19.0343 4.96489C19.0157 4.98354 19.2768 5.66433 19.6219 6.48503C19.9576 7.30573 20.2374 8.03313 20.2374 8.10773C20.2374 8.18233 19.9762 8.37818 19.6592 8.54608C18.9411 8.92843 17.8593 9.60923 17.5049 9.90763C17.3556 10.0289 17.1691 10.1315 17.0759 10.1315C16.9919 10.1315 16.4231 9.62788 15.8075 9.01238C15.2014 8.39683 14.6791 7.89323 14.6511 7.89323C14.6138 7.89323 13.9423 8.54608 13.1496 9.33878L11.7134 10.7843L12.8605 11.9407L14.0076 13.0878L13.4574 13.7779C13.1496 14.1603 12.6367 14.8784 12.3103 15.3727C11.9932 15.8763 11.7134 16.2866 11.6948 16.2866C11.6015 16.2866 9.27001 15.3167 9.19541 15.2514C8.91561 14.9996 8.79441 15.1955 8.02966 17.042C7.58201 18.1052 7.28361 18.9445 7.33021 18.9911C7.37686 19.0284 7.97371 19.2989 8.66381 19.588C9.35396 19.8771 9.93216 20.1289 9.95081 20.1476C9.96946 20.1662 9.85756 20.6791 9.69901 21.2853C9.54981 21.8915 9.37261 22.7588 9.30731 23.2065L9.20476 24.0178L8.83171 24.0831C8.62651 24.1111 7.97371 24.1297 7.37686 24.1111L6.29506 24.0738L6.26706 26.1442L6.24841 28.2145L7.71261 28.2425L9.18611 28.2705L9.29801 29.0166C9.40061 29.7533 9.69901 31.1335 9.88556 31.7677C9.93216 31.9449 9.97881 32.1221 9.97881 32.1501C9.97881 32.1874 9.39126 32.4578 8.67316 32.7563C7.94571 33.0454 7.33956 33.3251 7.31156 33.3718C7.28361 33.4184 7.43281 33.8847 7.65661 34.407C8.55191 36.5706 8.79441 37.1301 8.82236 37.1674C8.85966 37.2047 9.04621 37.1395 10.3985 36.5613C11.8347 35.9644 11.6668 35.9457 12.1891 36.7758C12.4315 37.1768 12.9445 37.8949 13.3175 38.3705L13.9983 39.2471L12.8978 40.3569C12.2916 40.9724 11.788 41.504 11.7694 41.5413C11.7601 41.5786 12.4036 42.2594 13.1963 43.0521L14.6418 44.4977L15.8448 43.2946L17.0386 42.1009L18.0551 42.791C18.6147 43.1734 19.3328 43.621 19.6592 43.7982C19.9762 43.9661 20.2374 44.1619 20.2374 44.2272C20.2374 44.3018 19.9669 45.0106 19.6312 45.8126C19.2955 46.6146 19.025 47.3048 19.025 47.3421C19.025 47.3794 19.1369 47.4633 19.2861 47.5099C19.426 47.5659 20.256 47.9016 21.1233 48.2653C22 48.6291 22.7554 48.9275 22.802 48.9275C22.858 48.9275 22.9979 48.6664 23.1191 48.34C23.2403 48.0229 23.4175 47.5939 23.5108 47.3887C23.604 47.1835 23.7812 46.7452 23.9211 46.4188C24.0517 46.0831 24.2009 45.7846 24.2475 45.7567C24.2942 45.7287 24.7325 45.794 25.1988 45.9152C25.6744 46.0364 26.4671 46.1763 26.9521 46.2416C27.437 46.2976 27.8567 46.3628 27.8847 46.3908C27.9126 46.4095 27.9499 47.2302 27.9779 48.2094L28.0246 50H30.0296H32.0347L32.0907 48.1814C32.1187 47.1835 32.1466 46.3628 32.156 46.3535C32.1653 46.3442 32.4637 46.3162 32.8181 46.2789C33.1725 46.2509 33.9465 46.1204 34.5434 45.9898C35.1403 45.8592 35.6812 45.7567 35.7465 45.7567C35.8677 45.7567 36.2314 46.54 36.9309 48.3026C37.0428 48.5918 37.1827 48.8622 37.2293 48.8902C37.2666 48.9182 37.8821 48.7037 38.5909 48.4146C41.1835 47.3514 41.0529 47.4167 41.0063 47.2115C40.9783 47.0996 40.7079 46.4095 40.3908 45.6727C40.0737 44.936 39.8219 44.2832 39.8219 44.2272C39.8219 44.1712 40.083 43.9754 40.4094 43.7982C41.1648 43.3879 42.2 42.7257 42.6477 42.3713L43.0114 42.0916L44.2144 43.2946L45.4175 44.4977L46.863 43.0521C47.6557 42.2594 48.2992 41.5786 48.2899 41.5413C48.2712 41.504 47.7863 40.9911 47.2174 40.4036C46.6392 39.816 46.1636 39.2938 46.1636 39.2471C46.1636 39.1912 46.5086 38.6876 46.9376 38.1373C47.3573 37.5778 47.8516 36.8783 48.0288 36.5892C48.2059 36.3001 48.3738 36.0577 48.4111 36.0577C48.4391 36.0577 49.0639 36.3095 49.7914 36.6172C50.519 36.925 51.153 37.1768 51.19 37.1768C51.274 37.1768 51.33 37.0462 52.179 35.0038C52.5145 34.1925 52.785 33.4744 52.785 33.4184C52.785 33.3531 52.1695 33.0547 51.4325 32.7563C50.6865 32.4485 50.0805 32.1781 50.0805 32.1594C50.0805 32.1314 50.1645 31.8237 50.2765 31.4693C50.5095 30.6859 50.8265 29.0352 50.8265 28.6249C50.8265 28.2425 50.873 28.2332 52.552 28.1959L53.8575 28.1772L53.8855 26.2281C53.895 25.0064 53.876 24.2417 53.811 24.167C53.7455 24.0924 53.4845 24.0645 52.9155 24.1018C51.9455 24.1484 50.92 24.0551 50.873 23.9059C50.864 23.8406 50.7985 23.4396 50.7335 23.0013C50.668 22.563 50.491 21.7516 50.3415 21.1921C50.2015 20.6325 50.09 20.1662 50.099 20.1476C50.1175 20.1382 50.5465 19.9517 51.0595 19.7372C52.701 19.0471 52.785 19.0005 52.785 18.8979C52.785 18.8326 52.6635 18.5062 52.5145 18.1705C52.3745 17.8254 52.0295 17.014 51.759 16.3519C51.4885 15.6991 51.237 15.1675 51.1995 15.1675C51.1345 15.1675 50.5935 15.3727 50.2205 15.5405C49.6981 15.7737 48.7096 16.1747 48.5417 16.2213C48.3831 16.268 48.2433 16.1094 47.7023 15.2794C47.348 14.7385 46.8537 14.0484 46.6112 13.7499C46.3594 13.4608 46.1636 13.1717 46.1636 13.1251C46.1636 13.0785 46.6392 12.5469 47.2174 11.95C47.7863 11.3532 48.2712 10.8309 48.2899 10.8029C48.2992 10.7656 47.6557 10.0848 46.863 9.29213L45.4175 7.84663L44.2704 8.99373C43.6456 9.61853 43.086 10.1315 43.0207 10.1315C42.9648 10.1315 42.4798 9.84238 41.9482 9.49733C41.4166 9.14293 40.7265 8.71393 40.4094 8.53673C40.083 8.36888 39.8219 8.18233 39.8219 8.13573C39.8219 8.08908 40.0924 7.38033 40.4281 6.56898C40.7638 5.75758 41.0343 5.05813 41.0343 5.01153C41.0343 4.91826 37.4065 3.39813 37.2759 3.44476C37.2293 3.45409 36.8842 4.18151 36.5112 5.05813C36.0729 6.09333 35.8024 6.62493 35.7185 6.60628C34.2916 6.28918 33.3683 6.11198 32.8368 6.06533C32.473 6.02803 32.1653 6.00008 32.156 5.99073C32.1466 5.98143 32.1187 5.16073 32.0907 4.16286L32.0347 2.3443L30.011 2.31632L27.9779 2.29767V4.11623ZM31.8948 10.8029C34.3569 11.1946 36.5019 12.2951 38.2365 14.039C40.3815 16.1933 41.5099 18.758 41.7804 22.0874C41.8177 22.5816 41.8736 23.02 41.9016 23.0759C41.9389 23.1225 42.6104 22.9827 43.4684 22.7402C44.8299 22.3671 44.9978 22.3392 45.0911 22.479C45.4734 23.0013 45.6973 26.34 45.4268 27.6177C44.9792 29.772 43.9533 31.6278 42.3213 33.2319C40.913 34.6308 39.4209 35.6566 37.5184 36.5333C37.0428 36.7571 36.6511 36.9903 36.6511 37.0555C36.6511 37.1208 37.0334 37.7363 37.4997 38.4078L38.3391 39.6482L38.1059 39.8347C37.7329 40.1331 36.2128 40.8605 35.4294 41.1217C33.1259 41.8957 30.5892 41.8957 28.2577 41.1217C26.0754 40.3942 23.9957 38.986 22.1958 37.0089L21.515 36.2535L20.685 37.298C20.2374 37.8762 19.7804 38.4451 19.6778 38.557L19.4913 38.7808L19.1462 38.5011C17.9059 37.5125 16.7774 36.1509 16.0687 34.7987C15.248 33.2039 14.9682 31.8516 15.0428 29.7347C15.0708 28.9046 15.1547 27.9627 15.248 27.571C15.5837 26.0509 16.4137 23.9805 17.2251 22.6283C17.393 22.3485 17.5328 22.0687 17.5328 22.0034C17.5328 21.9475 17.3556 21.8356 17.1412 21.7609C16.9173 21.677 16.2832 21.4532 15.7143 21.248C14.8283 20.9309 14.6884 20.847 14.6604 20.6605C14.6231 20.3807 15.3972 18.8606 16.0034 18.0026C17.309 16.156 19.4167 14.6732 21.6736 13.9924C23.716 13.3769 26.3272 13.2184 28.6121 13.5821C29.2649 13.6847 29.8804 13.7779 29.983 13.7966C30.1509 13.8152 30.1789 13.7406 30.2255 13.1624C30.2628 12.7987 30.2908 12.1086 30.3001 11.6143C30.3001 11.12 30.3281 10.7004 30.356 10.6724C30.4213 10.6071 31.0741 10.663 31.8948 10.8029Z" fill="#9EFFCA"/>
<path d="M31.1301 13.9925C29.4141 15.2701 28.3323 16.641 27.894 18.0959C27.4557 19.5228 27.7914 20.9217 28.9572 22.4511C29.2369 22.8242 29.4701 23.1506 29.4701 23.1879C29.4701 23.2158 29.5354 23.7568 29.61 24.3909C29.6939 25.0251 29.7312 25.566 29.7126 25.594C29.6846 25.6219 29.2276 25.2862 28.696 24.8572L27.7354 24.0738V22.6283C27.7448 21.332 27.7168 21.1268 27.521 20.6419C27.1759 19.7652 26.635 19.2803 25.2081 18.5715C23.7999 17.8721 23.2217 17.3964 22.7554 16.5851C22.5782 16.268 22.401 16.0069 22.373 16.0069C22.2704 16.0069 22.0932 17.7508 22.0932 18.7301C22.1026 21.1641 22.9885 22.8988 24.6486 23.7194C25.2827 24.0365 26.3366 24.307 26.9427 24.307C27.2505 24.307 27.4463 24.4189 28.2204 25.0064C29.7032 26.1442 29.6659 26.0043 28.5375 26.1442C27.9966 26.2001 27.4184 26.2748 27.2505 26.3027C26.9707 26.34 26.8961 26.3027 26.5511 25.9203C25.7117 24.9877 25.0123 24.3816 24.4341 24.0925C23.9118 23.8314 23.7346 23.7941 23.1284 23.7941C22.5502 23.7941 22.2331 23.8687 21.2819 24.1951C19.8923 24.6893 19.1556 24.764 18.195 24.5495C17.8126 24.4655 17.4862 24.4096 17.4676 24.4375C17.393 24.5028 18.3255 25.6966 18.9597 26.3494C20.5451 27.9814 22.2891 28.7182 23.8652 28.4104C24.6672 28.2612 25.6464 27.7949 26.3459 27.2167L26.9054 26.769L28.0712 26.6104C29.4701 26.4146 29.5074 26.4147 29.4421 26.5825C29.4141 26.6478 29.0691 27.1141 28.668 27.5991L27.9406 28.4943L26.8961 28.4384C25.1988 28.3451 24.0237 28.6902 23.3616 29.4642C23.1751 29.6787 22.8113 30.2943 22.5316 30.8352C22.2611 31.3761 21.9347 31.9823 21.8041 32.1968C21.4964 32.6817 20.8063 33.2879 20.2747 33.5397C20.0509 33.6516 19.883 33.7728 19.911 33.8194C19.9949 33.95 21.4871 34.1179 22.6155 34.1179C25.9076 34.1085 27.7821 32.5791 28.1738 29.5948L28.2764 28.7647L29.0224 27.7948C29.4234 27.2633 29.7965 26.825 29.8338 26.825C29.8804 26.825 29.955 27.2167 30.0203 27.683C30.0763 28.1586 30.1509 28.7182 30.1789 28.9327C30.2255 29.3057 30.2068 29.3244 29.582 29.8653C28.0619 31.1802 27.493 32.2993 27.6981 33.5677C27.7448 33.8941 27.9406 34.5562 28.1271 35.0412C28.5468 36.151 28.6494 37.2981 28.4069 38.1467C28.3137 38.4451 28.267 38.7156 28.295 38.7342C28.323 38.7622 28.668 38.5477 29.0691 38.2493C30.5239 37.1675 31.6244 35.8152 32.0907 34.5655C32.3984 33.7169 32.3984 32.3553 32.0907 31.5346C31.9042 31.0683 31.2607 29.9678 31.0648 29.8093C30.7477 29.5481 30.6545 29.2684 30.4866 28.1586C30.3933 27.5058 30.3094 26.9089 30.3094 26.8436C30.3094 26.6665 30.468 26.7131 30.7571 26.9556C30.897 27.0768 31.3073 27.4125 31.6617 27.6923L32.3145 28.1959V29.5854C32.3145 31.1242 32.4357 31.6558 32.9393 32.3926C33.2657 32.8775 33.7041 33.1853 35.019 33.8474C36.2034 34.435 36.9122 35.0225 37.3225 35.7499C37.4718 36.0203 37.6303 36.2629 37.6769 36.2909C37.8448 36.3934 38.0873 34.0899 38.0033 33.12C37.7515 30.0238 36.2501 28.3637 33.3963 28.0466C32.6782 27.972 32.6689 27.9628 31.6803 27.198C31.1301 26.769 30.6825 26.3866 30.6825 26.3586C30.6825 26.3213 31.1301 26.2375 31.6897 26.1815C32.2399 26.1162 32.7808 26.0509 32.902 26.023C33.0792 25.9857 33.2844 26.1535 34.0118 26.9183C34.7393 27.683 35.019 27.9068 35.6066 28.1959C36.6231 28.6995 37.22 28.6902 38.796 28.14C40.1949 27.6457 41.025 27.5617 41.9575 27.8042C42.284 27.8881 42.5637 27.9347 42.5917 27.9068C42.6383 27.8601 42.3772 27.4685 41.827 26.7784C40.2509 24.7826 38.395 23.7381 36.6511 23.8687C35.6159 23.9433 34.4874 24.4469 33.5735 25.2396C33.2005 25.566 33.1072 25.594 32.2772 25.6966C31.7829 25.7525 31.1954 25.8271 30.9716 25.8644C30.6825 25.9017 30.5705 25.8924 30.5985 25.8085C30.6172 25.7525 30.9716 25.2862 31.3726 24.7733L32.1187 23.8314L33.1445 23.8966C33.9372 23.9433 34.3569 23.9246 34.9164 23.8034C36.2874 23.5236 36.7723 23.076 37.6583 21.2947C38.3204 19.9611 38.8054 19.3642 39.6167 18.8979C39.9338 18.7207 40.1949 18.5435 40.1949 18.5156C40.1949 18.4503 39.1038 18.2824 38.0966 18.1892C36.8656 18.0772 35.1496 18.4223 34.161 18.9725C32.902 19.672 31.8948 21.4439 31.8948 22.964C31.8948 23.3837 31.8389 23.4956 31.1208 24.4655C30.7011 25.0344 30.3094 25.51 30.2535 25.51C30.1882 25.5194 30.1042 25.165 30.039 24.6054C29.983 24.1111 29.9084 23.5516 29.8804 23.3651C29.8338 23.0573 29.8618 23.0107 30.2814 22.6749C31.8202 21.4253 32.5756 20.101 32.4171 18.9073C32.3891 18.6648 32.1839 17.9747 31.9694 17.3591C31.6057 16.324 31.5777 16.1654 31.5777 15.2608C31.5777 14.5427 31.6151 14.1883 31.727 13.9272C31.9321 13.4702 31.8109 13.4889 31.1301 13.9925ZM30.2908 26.1442C30.2628 26.4426 29.8804 26.5732 29.7872 26.3214C29.6939 26.0789 29.8245 25.8924 30.0763 25.8924C30.2908 25.8924 30.3187 25.9297 30.2908 26.1442Z" fill="#9EFFCA"/>
<path d="M25.4786 15.4473C24.546 16.0162 24.5926 17.415 25.5532 17.8907C26.7749 18.5062 28.0805 17.2099 27.4463 16.0348C27.0453 15.3074 26.15 15.0369 25.4786 15.4473Z" fill="#9EFFCA"/>
<path d="M33.3124 15.5405C32.1933 16.2213 32.5383 17.9187 33.844 18.1145C34.161 18.1611 34.3382 18.1331 34.6553 17.9839C35.1589 17.7415 35.3641 17.4337 35.4201 16.8462C35.476 16.2866 35.1776 15.7084 34.7299 15.4939C34.3103 15.2981 33.6854 15.3167 33.3124 15.5405Z" fill="#9EFFCA"/>
<path d="M19.9575 20.9309C18.9596 21.4252 18.9596 22.8987 19.9575 23.393C20.9647 23.8966 22.0838 23.1598 21.9812 22.0594C21.8973 21.0335 20.8808 20.4646 19.9575 20.9309Z" fill="#9EFFCA"/>
<path d="M38.8427 21.1175C38.3764 21.4159 38.2085 21.6677 38.1619 22.1433C38.022 23.6075 39.8219 24.3349 40.6706 23.1598C40.9317 22.8055 40.9503 22.7122 40.9224 22.2272C40.8851 21.7516 40.8384 21.6397 40.54 21.3506C40.2416 21.0522 40.139 21.0055 39.6634 20.9776C39.2437 20.9496 39.0572 20.9776 38.8427 21.1175Z" fill="#9EFFCA"/>
<path d="M19.8271 28.8114C19.081 29.2311 18.9038 30.1823 19.4353 30.8818C19.7338 31.2735 20.0043 31.3947 20.5452 31.3947C21.9814 31.3947 22.4476 29.4456 21.17 28.7741C20.741 28.541 20.2747 28.5503 19.8271 28.8114Z" fill="#9EFFCA"/>
<path d="M38.796 28.9606C38.4043 29.1658 38.0499 29.7347 38.0499 30.173C38.0499 30.5461 38.339 31.0963 38.6748 31.3388C38.8053 31.432 39.0944 31.5346 39.3182 31.5625C40.8477 31.7304 41.4912 29.6414 40.1203 28.9326C39.7379 28.7368 39.197 28.7461 38.796 28.9606Z" fill="#9EFFCA"/>
<path d="M25.3573 34.3977C24.6859 34.7801 24.4247 35.694 24.8071 36.3188C25.1055 36.8131 25.5065 37.009 26.1407 36.9623C26.6163 36.9344 26.7282 36.8877 27.008 36.6079C27.2785 36.3282 27.3438 36.1883 27.3811 35.7686C27.4463 35.1344 27.2318 34.7054 26.7096 34.407C26.2526 34.1459 25.7956 34.1366 25.3573 34.3977Z" fill="#9EFFCA"/>
<path d="M33.2191 34.4443C32.5476 34.7707 32.2865 35.5634 32.6315 36.2629C32.8833 36.7758 33.2097 37.009 33.76 37.0649C34.9071 37.1768 35.6345 35.9738 35.0563 34.9386C34.7205 34.3324 33.8905 34.1086 33.2191 34.4443Z" fill="#9EFFCA"/>
</g>
<defs>
<clipPath id="clip0_2145_1579">
<rect width="53.9" height="50" fill="white"/>
</clipPath>
</defs>
</svg>
