<svg width="17" height="16" viewBox="0 0 17 16" fill="none" xmlns="http://www.w3.org/2000/svg">
<path d="M12.7084 5.33331H4.23618V3.99998H12.7084V5.33331ZM12.7084 7.33331H4.23618V5.99998H12.7084V7.33331ZM12.7084 9.33331H4.23618V7.99998H12.7084V9.33331ZM15.5325 2.66665C15.5325 2.31302 15.3837 1.97389 15.1189 1.72384C14.8541 1.47379 14.4949 1.33331 14.1204 1.33331H2.82415C2.44965 1.33331 2.09049 1.47379 1.82569 1.72384C1.56088 1.97389 1.41211 2.31302 1.41211 2.66665V10.6666C1.41211 11.0203 1.56088 11.3594 1.82569 11.6095C2.09049 11.8595 2.44965 12 2.82415 12H12.7084L15.5325 14.6666V2.66665Z" fill="#9EFFCA"/>
<path d="M4.58936 4.99998V4.33331H8.47246H12.3556V4.99998H4.58936Z" stroke="#8B82B5"/>
<path d="M4.58936 4.99998V4.33331H8.47246H12.3556V4.99998H4.58936Z" stroke="black" stroke-opacity="0.6"/>
<path d="M4.58936 6.99998V6.33331H12.3556V6.99998H4.58936Z" stroke="#8B82B5"/>
<path d="M4.58936 6.99998V6.33331H12.3556V6.99998H4.58936Z" stroke="black" stroke-opacity="0.6"/>
<path d="M4.58936 8.99998V8.33331H12.3556V8.99998H4.58936Z" stroke="#8B82B5"/>
<path d="M4.58936 8.99998V8.33331H12.3556V8.99998H4.58936Z" stroke="black" stroke-opacity="0.6"/>
</svg>
