<svg width="30" height="30" viewBox="0 0 30 30" fill="none" xmlns="http://www.w3.org/2000/svg">
<path d="M20.3704 11.1975C20.3704 12.6709 19.7851 14.084 18.7432 15.1259C17.7013 16.1678 16.2883 16.7531 14.8148 16.7531C13.3414 16.7531 11.9283 16.1678 10.8865 15.1259C9.84459 14.084 9.25928 12.6709 9.25928 11.1975C9.25928 9.7241 9.84459 8.31102 10.8865 7.26915C11.9283 6.22728 13.3414 5.64197 14.8148 5.64197C16.2883 5.64197 17.7013 6.22728 18.7432 7.26915C19.7851 8.31102 20.3704 9.7241 20.3704 11.1975Z" fill="white"/>
<path fill-rule="evenodd" clip-rule="evenodd" d="M0 14.9012C0 10.9721 1.56084 7.2039 4.33916 4.42558C7.11747 1.64727 10.8857 0.0864258 14.8148 0.0864258C18.7439 0.0864258 22.5121 1.64727 25.2905 4.42558C28.0688 7.2039 29.6296 10.9721 29.6296 14.9012C29.6296 18.8304 28.0688 22.5986 25.2905 25.3769C22.5121 28.1552 18.7439 29.716 14.8148 29.716C10.8857 29.716 7.11747 28.1552 4.33916 25.3769C1.56084 22.5986 0 18.8304 0 14.9012ZM14.8148 1.93828C12.3737 1.93841 9.98215 2.62784 7.91556 3.92722C5.84896 5.22659 4.19126 7.08311 3.13327 9.28308C2.07527 11.483 1.65997 13.937 1.93518 16.3626C2.21039 18.7882 3.16491 21.0868 4.68889 22.9938C6.0037 20.8753 8.89814 18.6049 14.8148 18.6049C20.7315 18.6049 23.6241 20.8735 24.9407 22.9938C26.4647 21.0868 27.4192 18.7882 27.6944 16.3626C27.9696 13.937 27.5543 11.483 26.4963 9.28308C25.4384 7.08311 23.7807 5.22659 21.7141 3.92722C19.6475 2.62784 17.256 1.93841 14.8148 1.93828Z" fill="white"/>
</svg>
