<svg width="23" height="22" viewBox="0 0 23 22" fill="none" xmlns="http://www.w3.org/2000/svg">
<path d="M11.5692 11C13.0219 11 14.4152 10.4205 15.4424 9.38909C16.4696 8.35764 17.0467 6.95869 17.0467 5.5C17.0467 4.04131 16.4696 2.64236 15.4424 1.61091C14.4152 0.579463 13.0219 0 11.5692 0C10.1165 0 8.72328 0.579463 7.69605 1.61091C6.66883 2.64236 6.09174 4.04131 6.09174 5.5C6.09174 6.95869 6.66883 8.35764 7.69605 9.38909C8.72328 10.4205 10.1165 11 11.5692 11ZM15.2209 5.5C15.2209 6.47246 14.8361 7.40509 14.1513 8.09272C13.4665 8.78036 12.5377 9.16667 11.5692 9.16667C10.6007 9.16667 9.67192 8.78036 8.98711 8.09272C8.30229 7.40509 7.91756 6.47246 7.91756 5.5C7.91756 4.52754 8.30229 3.59491 8.98711 2.90727C9.67192 2.21964 10.6007 1.83333 11.5692 1.83333C12.5377 1.83333 13.4665 2.21964 14.1513 2.90727C14.8361 3.59491 15.2209 4.52754 15.2209 5.5ZM22.5242 20.1667C22.5242 22 20.6983 22 20.6983 22H2.44008C2.44008 22 0.614258 22 0.614258 20.1667C0.614258 18.3333 2.44008 12.8333 11.5692 12.8333C20.6983 12.8333 22.5242 18.3333 22.5242 20.1667ZM20.6983 20.1593C20.6965 19.7083 20.4172 18.3517 19.1793 17.1087C17.9888 15.9133 15.7485 14.6667 11.5692 14.6667C7.38807 14.6667 5.14961 15.9133 3.95917 17.1087C2.72126 18.3517 2.44374 19.7083 2.44008 20.1593H20.6983Z" fill="#9EFFCA"/>
</svg>
